<?xml version="1.0" encoding="UTF-8"?>
<!DOCTYPE svg PUBLIC "-//W3C//DTD SVG 1.1//EN" "http://www.w3.org/Graphics/SVG/1.1/DTD/svg11.dtd">
<!-- Creator: CorelDRAW X7 -->
<svg xmlns="http://www.w3.org/2000/svg" xml:space="preserve" width="4.73333in" height="30in" version="1.1" style="shape-rendering:geometricPrecision; text-rendering:geometricPrecision; image-rendering:optimizeQuality; fill-rule:evenodd; clip-rule:evenodd"
viewBox="0 0 4733 30000"
 xmlns:xlink="http://www.w3.org/1999/xlink">
 <defs>
  <style type="text/css">
   <![CDATA[
    .fil4 {fill:none}
    .fil6 {fill:black}
    .fil8 {fill:#336699}
    .fil0 {fill:#E6E6E6}
    .fil9 {fill:#E70012}
    .fil10 {fill:#FEFEFE}
    .fil2 {fill:red}
    .fil1 {fill:white}
    .fil3 {fill:red;fill-rule:nonzero}
    .fil5 {fill:white;fill-rule:nonzero}
    .fil7 {fill:white;fill-rule:nonzero;fill-opacity:0.400000}
   ]]>
  </style>
   <clipPath id="id0">
    <path d="M237 10395l1010 0 0 1010 -1010 0 0 -1010z"/>
   </clipPath>
    <clipPath id="id1">
     <path d="M1247 10395l0 1010 -1010 0 0 -1010 1010 0z"/>
    </clipPath>
    <clipPath id="id2">
     <path d="M237 10395l1010 0 0 1010 -1010 0 0 -1010z"/>
    </clipPath>
   <clipPath id="id3">
    <path d="M1320 10395l1010 0 0 1010 -1010 0 0 -1010z"/>
   </clipPath>
    <clipPath id="id4">
     <path d="M2330 10395l0 1010 -1010 0 0 -1010 1010 0z"/>
    </clipPath>
    <clipPath id="id5">
     <path d="M1320 10395l1010 0 0 1010 -1010 0 0 -1010z"/>
    </clipPath>
   <clipPath id="id6">
    <path d="M237 11479l1010 0 0 1010 -1010 0 0 -1010z"/>
   </clipPath>
    <clipPath id="id7">
     <path d="M1247 11479l0 1010 -1010 0 0 -1010 1010 0z"/>
    </clipPath>
    <clipPath id="id8">
     <path d="M237 11479l1010 0 0 1010 -1010 0 0 -1010z"/>
    </clipPath>
   <clipPath id="id9">
    <path d="M1320 11479l1010 0 0 1010 -1010 0 0 -1010z"/>
   </clipPath>
    <clipPath id="id10">
     <path d="M1320 11479l1010 0 0 1010 -1010 0 0 -1010z"/>
    </clipPath>
     <clipPath id="id11">
      <rect x="1305" y="11304" width="1041" height="1292"/>
     </clipPath>
    <clipPath id="id12">
     <path d="M1320 11479l1010 0 0 1010 -1010 0 0 -1010z"/>
    </clipPath>
   <clipPath id="id13">
    <path d="M237 12562l1010 0 0 1010 -1010 0 0 -1010z"/>
   </clipPath>
    <clipPath id="id14">
     <path d="M1247 12562l0 1010 -1010 0 0 -1010 1010 0z"/>
    </clipPath>
    <clipPath id="id15">
     <path d="M237 12562l1010 0 0 1010 -1010 0 0 -1010z"/>
    </clipPath>
   <clipPath id="id16">
    <path d="M1320 12562l1010 0 0 1010 -1010 0 0 -1010z"/>
   </clipPath>
    <clipPath id="id17">
     <path d="M2330 12562l0 1010 -1010 0 0 -1010 1010 0z"/>
    </clipPath>
    <clipPath id="id18">
     <path d="M1320 12562l1010 0 0 1010 -1010 0 0 -1010z"/>
    </clipPath>
   <clipPath id="id19">
    <path d="M2403 12562l1010 0 0 1010 -1010 0 0 -1010z"/>
   </clipPath>
    <clipPath id="id20">
     <path d="M3413 12562l0 1010 -1010 0 0 -1010 1010 0z"/>
    </clipPath>
    <clipPath id="id21">
     <path d="M2403 12562l1010 0 0 1010 -1010 0 0 -1010z"/>
    </clipPath>
   <clipPath id="id22">
    <path d="M3487 12562l1010 0 0 1010 -1010 0 0 -1010z"/>
   </clipPath>
    <clipPath id="id23">
     <path d="M4497 12562l0 1010 -1010 0 0 -1010 1010 0z"/>
    </clipPath>
    <clipPath id="id24">
     <path d="M3487 12562l1010 0 0 1010 -1010 0 0 -1010z"/>
    </clipPath>
   <clipPath id="id25">
    <path d="M2403 10395l2094 0 0 2094 -2094 0 0 -2094z"/>
   </clipPath>
    <clipPath id="id26">
     <path d="M2403 10395l2094 0 0 2094 -2094 0 0 -2094z"/>
    </clipPath>
    <clipPath id="id27">
     <path d="M2403 10395l2094 0 0 2094 -2094 0 0 -2094z"/>
    </clipPath>
   <clipPath id="id28">
    <path d="M237 13645l4260 0 0 2094 -4260 0 0 -2094z"/>
   </clipPath>
    <clipPath id="id29">
     <path d="M237 13645l4260 0 0 2094 -4260 0 0 -2094z"/>
    </clipPath>
    <clipPath id="id30">
     <path d="M237 13645l4260 0 0 2094 -4260 0 0 -2094z"/>
    </clipPath>
 </defs>
 <g id="Layer_x0020_1">
  <metadata id="CorelCorpID_0Corel-Layer"/>
  <polygon class="fil0" points="0,9780 4733,9780 4733,16145 0,16145 "/>
  <polygon class="fil1" points="163,9780 4570,9780 4570,16145 163,16145 "/>
  <rect class="fil2" x="237" y="9854" width="468" height="468"/>
  <g id="_2828810534592">
   <path class="fil2" d="M237 12295l0 -13 10 0 0 -50 -10 0 0 -12 41 0 0 12 -11 0 0 50 22 0 0 -23 15 0 0 36 -67 0zm203 -28l18 -15 -11 0 0 -9 32 0 0 10 -6 0 -15 13 14 17 7 0 0 12 -16 0 -23 -28zm106 16l0 12 -25 0 0 -4c-5,3 -10,5 -15,5 -5,0 -9,-2 -13,-5 -4,-3 -6,-7 -6,-12 0,-5 2,-9 6,-12 4,-4 9,-5 16,-5 3,0 7,1 12,2l0 -3c0,-3 -1,-5 -3,-6 -2,-2 -4,-3 -7,-3 -4,0 -7,1 -10,4l-13 -2c3,-9 12,-13 25,-13 5,0 9,1 12,2 4,1 6,3 8,4 1,2 3,4 3,6 1,2 1,6 1,11l0 19 9 0zm-25 -8c-4,-2 -8,-3 -10,-3 -2,0 -4,0 -5,1 -2,1 -3,3 -3,5 0,2 1,4 2,5 2,1 3,2 5,2 3,0 7,-2 11,-5l0 -5zm-153 8l0 12 -25 0 0 -4c-5,3 -10,5 -15,5 -5,0 -9,-2 -13,-5 -4,-3 -6,-7 -6,-12 0,-5 2,-9 6,-12 4,-4 9,-5 16,-5 3,0 7,1 12,2l0 -3c0,-3 -1,-5 -3,-6 -2,-2 -4,-3 -7,-3 -4,0 -7,1 -10,4l-13 -2c4,-9 12,-13 25,-13 5,0 9,1 13,2 3,1 5,3 7,4 2,2 3,4 3,6 1,2 1,6 1,11l0 19 9 0zm-25 -8c-4,-2 -7,-3 -10,-3 -2,0 -4,0 -5,1 -2,1 -2,3 -2,5 0,2 0,4 1,5 2,1 3,2 5,2 3,0 7,-2 11,-5l0 -5zm38 -47c0,-3 1,-5 3,-7 2,-2 4,-2 7,-2 2,0 4,0 6,2 2,2 3,4 3,7 0,2 -1,4 -3,6 -2,2 -4,3 -6,3 -3,0 -5,-1 -7,-3 -2,-2 -3,-4 -3,-6zm-7 27l0 -12 25 0 0 40 7 0 0 12 -32 0 0 -12 8 0 0 -28 -8 0zm38 40l0 -12 9 0 0 -51 -9 0 0 -12 25 0c0,74 0,-11 0,63l6 0 0 12 -31 0z"/>
   <path class="fil3" d="M261 12353l0 7c0,3 -1,4 -3,4 -3,0 -4,-1 -4,-4l0 -24c0,-3 1,-4 4,-4 2,0 3,1 3,4l0 5 7 0 0 -4c0,-7 -4,-11 -11,-11 -6,0 -10,4 -10,11l0 22c0,7 4,11 10,11 7,0 11,-4 11,-11l0 -6 -7 0zm61 -17c0,-3 1,-4 3,-4 3,0 4,1 4,4l0 24c0,3 -1,4 -4,4 -2,0 -3,-1 -3,-4l0 -24zm-7 23c0,7 4,11 10,11 7,0 11,-4 11,-11l0 -22c0,-7 -4,-11 -11,-11 -6,0 -10,4 -10,11l0 22zm69 10l18 0 0 -6 -11 0 0 -37 -7 0 0 43zm71 -33c0,-3 1,-4 4,-4 2,0 3,1 3,4l0 24c0,3 -1,4 -3,4 -3,0 -4,-1 -4,-4l0 -24zm-7 23c0,7 4,11 11,11 6,0 10,-4 10,-11l0 -22c0,-7 -4,-11 -10,-11 -7,0 -11,4 -11,11l0 22zm90 10c0,-1 -1,-3 -1,-5l0 -6c0,-5 -1,-8 -4,-10 3,-1 4,-4 4,-8l0 -4c0,-6 -3,-10 -10,-10l-10 0 0 43 7 0 0 -17 2 0c3,0 5,1 5,5l0 7c0,4 0,4 0,5l7 0zm-11 -36c3,0 4,1 4,4l0 4c0,4 -2,5 -4,5l-3 0 0 -13 3 0z"/>
  </g>
  <g>
  </g>
  <g style="clip-path:url(#id0)">
   <g>
   </g>
   <g style="clip-path:url(#id1)">
    <image id="s1200.jpg" x="48" y="10395" width="1388" height="1010" xlink:href="796_Images\796_ImgID1.png"/>
   </g>
   <g style="clip-path:url(#id2)">
   </g>
  </g>
  <polygon class="fil4" points="237,10395 1247,10395 1247,11405 237,11405 "/>
  <g>
  </g>
  <g style="clip-path:url(#id3)">
   <g>
   </g>
   <g style="clip-path:url(#id4)">
    <image id="_348464-admin.jpg" x="1199" y="10395" width="1253" height="1010" xlink:href="796_Images\796_ImgID2.png"/>
   </g>
   <g style="clip-path:url(#id5)">
   </g>
  </g>
  <polygon class="fil4" points="1320,10395 2330,10395 2330,11405 1320,11405 "/>
  <g>
   <path class="fil1" d="M333 10088l0 -11 10 0 0 -44 -10 0 0 -12 37 0 0 12 -10 0 0 44 20 0 0 -21 13 0 0 32 -60 0zm181 -24l16 -14 -9 0 0 -8 28 0 0 9 -5 0 -13 12 12 14 6 0 0 11 -14 0 -21 -24zm94 13l0 11 -22 0 0 -4c-4,3 -8,5 -13,5 -4,0 -8,-1 -11,-4 -4,-3 -6,-6 -6,-11 0,-4 2,-8 6,-11 3,-3 8,-4 13,-4 4,0 7,0 11,2l0 -3c0,-2 -1,-4 -2,-6 -2,-1 -4,-2 -7,-2 -3,0 -6,1 -8,4l-12 -2c3,-8 11,-11 22,-11 5,0 9,0 11,1 3,1 6,2 7,4 2,2 3,3 3,5 1,2 1,5 1,9l0 17 7 0zm-22 -6c-3,-2 -6,-3 -8,-3 -2,0 -4,0 -5,1 -1,1 -2,3 -2,4 0,2 0,4 2,5 1,1 2,2 4,2 3,0 6,-2 9,-5l0 -4zm-136 6l0 11 -22 0 0 -4c-4,3 -9,5 -13,5 -5,0 -9,-1 -12,-4 -3,-3 -5,-6 -5,-11 0,-4 2,-8 5,-11 4,-3 8,-4 14,-4 3,0 7,0 11,2l0 -3c0,-2 -1,-4 -3,-6 -1,-1 -3,-2 -6,-2 -3,0 -6,1 -9,4l-12 -2c4,-8 11,-11 23,-11 4,0 8,0 11,1 3,1 5,2 7,4 1,2 2,3 3,5 0,2 1,5 1,9l0 17 7 0zm-22 -6c-4,-2 -7,-3 -9,-3 -2,0 -3,0 -4,1 -2,1 -3,3 -3,4 0,2 1,4 2,5 1,1 3,2 4,2 3,0 6,-2 10,-5l0 -4zm34 -43c0,-2 1,-4 3,-5 1,-2 3,-3 5,-3 3,0 4,1 6,3 2,1 2,3 2,5 0,3 0,5 -2,6 -2,2 -3,2 -6,2 -2,0 -4,0 -5,-2 -2,-2 -3,-3 -3,-6zm-6 24l0 -10 22 0 0 35 6 0 0 11 -28 0 0 -11 7 0 0 -25 -7 0zm34 36l0 -11 7 0 0 -45 -7 0 0 -11 22 0c0,66 0,-9 0,57l5 0 0 10 -27 0z"/>
   <path class="fil5" d="M355 10140l0 6c0,3 -1,4 -3,4 -2,0 -3,-1 -3,-4l0 -21c0,-3 1,-4 3,-4 2,0 3,1 3,4l0 4 6 0 0 -3c0,-7 -3,-10 -9,-10 -6,0 -9,3 -9,10l0 20c0,6 3,9 9,9 6,0 9,-3 9,-9l0 -6 -6 0zm54 -15c0,-3 1,-4 3,-4 2,0 3,1 3,4l0 21c0,3 -1,4 -3,4 -2,0 -3,-1 -3,-4l0 -21zm-6 21c0,6 3,9 9,9 6,0 9,-3 9,-9l0 -20c0,-7 -3,-10 -9,-10 -6,0 -9,3 -9,10l0 20zm61 9l16 0 0 -6 -10 0 0 -33 -6 0 0 39zm64 -30c0,-3 1,-4 3,-4 2,0 3,1 3,4l0 21c0,3 -1,4 -3,4 -2,0 -3,-1 -3,-4l0 -21zm-6 21c0,6 3,9 9,9 6,0 9,-3 9,-9l0 -20c0,-7 -3,-10 -9,-10 -6,0 -9,3 -9,10l0 20zm80 9c-1,-2 -1,-3 -1,-5l0 -6c0,-4 -1,-7 -4,-8 3,-1 4,-4 4,-8l0 -3c0,-6 -3,-9 -9,-9l-9 0 0 39 6 0 0 -16 2 0c3,0 4,1 4,5l0 6c0,3 0,4 1,5l6 0zm-10 -33c2,0 3,1 3,4l0 4c0,3 -1,4 -3,4l-3 0 0 -12 3 0z"/>
  </g>
  <g>
  </g>
  <g style="clip-path:url(#id6)">
   <g>
   </g>
   <g style="clip-path:url(#id7)">
    <image id="_02.png" x="237" y="11479" width="1010" height="1010" xlink:href="796_Images\796_ImgID3.png"/>
   </g>
   <g style="clip-path:url(#id8)">
   </g>
  </g>
  <polygon class="fil4" points="237,11479 1247,11479 1247,12489 237,12489 "/>
  <g>
  </g>
  <g style="clip-path:url(#id9)">
   <g>
   </g>
   <g style="clip-path:url(#id10)">
    <image style="clip-path:url(#id11)" x="104" y="10788" width="4177" height="2350" xlink:href="796_Images\796_ImgID4.png"/>
   </g>
   <g style="clip-path:url(#id12)">
   </g>
  </g>
  <polygon class="fil4" points="1320,11479 2330,11479 2330,12489 1320,12489 "/>
  <rect class="fil2" x="237" y="15812" width="4260" height="333"/>
  <g>
   <path class="fil1" d="M333 15983l0 -11 10 0 0 -44 -10 0 0 -11 37 0 0 11 -10 0 0 44 20 0 0 -21 13 0 0 32 -60 0zm181 -24l16 -13 -9 0 0 -9 28 0 0 9 -5 0 -13 12 12 15 6 0 0 10 -14 0 -21 -24zm94 14l0 10 -22 0 0 -3c-4,3 -8,4 -13,4 -4,0 -8,-1 -11,-4 -4,-2 -6,-6 -6,-10 0,-5 2,-9 6,-12 3,-3 8,-4 13,-4 4,0 7,1 11,2l0 -3c0,-2 -1,-4 -2,-5 -2,-2 -4,-3 -7,-3 -3,0 -6,2 -8,4l-12 -2c3,-7 11,-11 22,-11 5,0 9,0 11,1 3,1 6,3 7,4 2,2 3,4 3,6 1,1 1,5 1,9l0 17 7 0zm-22 -7c-3,-2 -6,-3 -8,-3 -2,0 -4,0 -5,1 -1,1 -2,3 -2,5 0,1 0,3 2,4 1,1 2,2 4,2 3,0 6,-2 9,-5l0 -4zm-136 7l0 10 -22 0 0 -3c-4,3 -9,4 -13,4 -5,0 -9,-1 -12,-4 -3,-2 -5,-6 -5,-10 0,-5 2,-9 5,-12 4,-3 8,-4 14,-4 3,0 7,1 11,2l0 -3c0,-2 -1,-4 -3,-5 -1,-2 -3,-3 -6,-3 -3,0 -6,2 -9,4l-12 -2c4,-7 11,-11 23,-11 4,0 8,0 11,1 3,1 5,3 7,4 1,2 2,4 3,6 0,1 1,5 1,9l0 17 7 0zm-22 -7c-4,-2 -7,-3 -9,-3 -2,0 -3,0 -4,1 -2,1 -3,3 -3,5 0,1 1,3 2,4 1,1 3,2 4,2 3,0 6,-2 10,-5l0 -4zm34 -42c0,-3 1,-4 3,-6 1,-2 3,-2 5,-2 3,0 4,0 6,2 2,2 2,3 2,6 0,2 0,4 -2,5 -2,2 -3,3 -6,3 -2,0 -4,-1 -5,-3 -2,-1 -3,-3 -3,-5zm-6 24l0 -11 22 0 0 36 6 0 0 10 -28 0 0 -10 7 0 0 -25 -7 0zm34 35l0 -10 7 0 0 -46 -7 0 0 -10 22 0c0,65 0,-10 0,56l5 0 0 10 -27 0z"/>
   <path class="fil5" d="M355 16036l0 5c0,3 -1,4 -3,4 -2,0 -3,-1 -3,-4l0 -20c0,-3 1,-4 3,-4 2,0 3,1 3,4l0 4 6 0 0 -4c0,-6 -3,-10 -9,-10 -6,0 -9,4 -9,10l0 20c0,6 3,9 9,9 6,0 9,-3 9,-9l0 -5 -6 0zm54 -15c0,-3 1,-4 3,-4 2,0 3,1 3,4l0 20c0,3 -1,4 -3,4 -2,0 -3,-1 -3,-4l0 -20zm-6 20c0,6 3,9 9,9 6,0 9,-3 9,-9l0 -20c0,-6 -3,-10 -9,-10 -6,0 -9,4 -9,10l0 20zm61 9l16 0 0 -5 -10 0 0 -33 -6 0 0 38zm64 -29c0,-3 1,-4 3,-4 2,0 3,1 3,4l0 20c0,3 -1,4 -3,4 -2,0 -3,-1 -3,-4l0 -20zm-6 20c0,6 3,9 9,9 6,0 9,-3 9,-9l0 -20c0,-6 -3,-10 -9,-10 -6,0 -9,4 -9,10l0 20zm80 9c-1,-1 -1,-3 -1,-5l0 -6c0,-4 -1,-6 -4,-8 3,-1 4,-4 4,-7l0 -3c0,-6 -3,-9 -9,-9l-9 0 0 38 6 0 0 -16 2 0c3,0 4,2 4,5l0 6c0,3 0,4 1,5l6 0zm-10 -33c2,0 3,1 3,4l0 4c0,3 -1,4 -3,4l-3 0 0 -12 3 0z"/>
  </g>
  <path class="fil5" d="M3615 15974c0,1 -1,3 -2,4 -1,1 -3,1 -4,1 -2,0 -4,0 -5,-2 -1,-1 -2,-3 -2,-5l0 -2c0,-2 1,-4 2,-5 1,-1 3,-2 5,-2 2,0 3,1 4,2 1,1 2,2 2,4l-3 0c0,-1 0,-2 -1,-3 0,0 -1,0 -2,0 -2,0 -2,0 -3,1 -1,1 -1,2 -1,3l0 2c0,2 0,3 1,4 1,1 1,1 3,1 1,0 2,0 2,-1 1,0 1,-1 1,-2l3 0zm-17 -3c0,2 1,4 2,6 1,2 2,3 3,4 2,1 4,2 6,2 2,0 4,-1 5,-2 2,-1 3,-2 4,-4 1,-2 2,-4 2,-6 0,-2 -1,-4 -2,-5 -1,-2 -2,-4 -4,-5 -1,-1 -3,-1 -5,-1 -2,0 -4,0 -6,1 -1,1 -3,3 -3,5 -1,1 -2,3 -2,5zm-2 0c0,-2 1,-4 2,-7 1,-2 2,-3 4,-4 2,-2 5,-2 7,-2 2,0 4,0 6,2 2,1 4,2 5,4 1,3 2,5 2,7 0,3 -1,5 -2,7 -1,2 -3,4 -5,5 -2,1 -4,2 -6,2 -3,0 -5,-1 -7,-2 -2,-1 -3,-3 -4,-5 -1,-2 -2,-4 -2,-7z"/>
  <path id="1" class="fil5" d="M3652 15984l-17 0 0 -2 9 -10c1,-2 2,-3 3,-4 0,-1 0,-2 0,-3 0,-1 0,-2 -1,-3 -1,-1 -2,-1 -3,-1 -2,0 -3,0 -4,1 -1,1 -2,2 -2,4l-3 0c0,-3 1,-5 2,-6 2,-1 4,-2 7,-2 2,0 4,0 5,2 2,1 3,3 3,5 0,2 -2,5 -5,9l-7 8 13 0 0 2z"/>
  <path id="2" class="fil5" d="M3672 15973c0,4 -1,7 -2,9 -2,2 -4,3 -6,3 -3,0 -5,-1 -7,-3 -1,-2 -2,-5 -2,-8l0 -5c0,-4 1,-7 2,-8 2,-2 4,-3 7,-3 2,0 4,1 6,2 1,2 2,5 2,9l0 4zm-4 -4c0,-3 0,-5 -1,-7 -1,-1 -2,-1 -3,-1 -2,0 -3,0 -4,1 -1,2 -1,4 -1,6l0 6c0,3 0,5 1,6 1,1 2,2 4,2 1,0 2,-1 3,-2 1,-1 1,-3 1,-6l0 -5z"/>
  <path id="3" class="fil5" d="M3693 15984l-17 0 0 -2 9 -10c1,-2 2,-3 3,-4 0,-1 1,-2 1,-3 0,-1 -1,-2 -2,-3 0,-1 -2,-1 -3,-1 -2,0 -3,0 -4,1 -1,1 -1,2 -1,4l-3 0c0,-3 0,-5 2,-6 1,-1 4,-2 6,-2 3,0 4,0 6,2 1,1 2,3 2,5 0,2 -2,5 -5,9l-7 8 13 0 0 2z"/>
  <path id="4" class="fil5" d="M3713 15973c0,4 0,7 -2,9 -1,2 -3,3 -6,3 -3,0 -5,-1 -6,-3 -2,-2 -2,-5 -2,-8l0 -5c0,-4 0,-7 2,-8 1,-2 3,-3 6,-3 3,0 5,1 6,2 1,2 2,5 2,9l0 4zm-3 -4c0,-3 -1,-5 -1,-7 -1,-1 -2,-1 -4,-1 -2,0 -3,0 -4,1 -1,2 -1,4 -1,6l0 6c0,3 0,5 1,6 1,1 2,2 4,2 2,0 3,-1 4,-2 0,-1 1,-3 1,-6l0 -5z"/>
  <path id="5" class="fil5" d="M3727 15984l0 -26 9 0c3,0 5,1 6,2 2,1 3,3 3,5 0,1 -1,2 -1,3 -1,1 -2,2 -3,3 1,0 2,1 3,2 1,1 1,2 1,4 0,2 0,4 -2,5 -2,2 -4,2 -6,2l-10 0zm4 -12l0 10 6 0c1,0 2,-1 3,-2 1,-1 2,-2 2,-3 0,-3 -2,-5 -5,-5l-6 0zm0 -3l5 0c2,0 3,0 4,-1 1,-1 1,-2 1,-3 0,-1 0,-2 -1,-3 -1,-1 -2,-1 -4,-1l-5 0 0 8z"/>
  <path id="6" class="fil5" d="M3758 15982c1,0 2,0 3,-1 1,-1 1,-2 1,-3l3 0c0,1 0,2 -1,3 0,1 -1,2 -3,3 -1,0 -2,1 -3,1 -3,0 -5,-1 -7,-3 -1,-2 -2,-4 -2,-7l0 -1c0,-2 0,-3 1,-5 1,-1 2,-2 3,-3 1,-1 3,-1 5,-1 2,0 4,0 5,1 2,2 2,3 2,6l-3 0c0,-2 0,-3 -1,-4 -1,0 -2,-1 -3,-1 -2,0 -3,1 -4,2 -1,1 -2,3 -2,5l0 1c0,2 1,4 2,5 1,1 2,2 4,2z"/>
  <path id="7" class="fil5" d="M3777 15985c-2,0 -5,-1 -6,-3 -2,-2 -3,-4 -3,-7l0 0c0,-2 1,-4 1,-6 1,-1 2,-2 4,-3 1,-1 2,-1 4,-1 2,0 4,0 6,2 1,2 2,4 2,7l0 2 -13 0c0,2 0,3 1,4 1,1 3,2 4,2 2,0 3,0 3,-1 1,0 2,-1 3,-2l2 2c-2,2 -5,4 -8,4zm0 -18c-2,0 -3,1 -4,2 0,1 -1,2 -1,4l10 0 0 0c-1,-2 -1,-3 -2,-4 -1,-1 -2,-2 -3,-2z"/>
  <polygon id="8" class="fil5" points="3814,15984 3810,15984 3810,15968 3801,15968 3801,15984 3798,15984 3798,15965 3814,15965 "/>
  <path id="9" class="fil5" d="M3836 15975c0,3 -1,5 -3,7 -1,2 -3,3 -5,3 -2,0 -4,-1 -6,-3l0 10 -3 0 0 -27 3 0 0 2c2,-2 4,-2 6,-2 2,0 4,0 5,2 2,2 3,4 3,8l0 0zm-4 -1c0,-2 0,-3 -1,-5 -1,-1 -2,-2 -4,-2 -2,0 -4,1 -5,3l0 9c1,2 3,3 5,3 2,0 3,-1 4,-2 1,-1 1,-3 1,-6z"/>
  <path id="10" class="fil5" d="M3852 15984c0,0 -1,-1 -1,-2 -1,2 -3,3 -5,3 -2,0 -4,-1 -5,-2 -1,-1 -2,-2 -2,-4 0,-2 1,-4 3,-5 1,-1 3,-1 6,-1l3 0 0 -2c0,-1 0,-2 -1,-3 0,0 -2,-1 -3,-1 -1,0 -2,1 -3,1 -1,1 -1,1 -1,2l-3 0c0,-1 0,-2 1,-3 0,0 1,-1 2,-2 2,0 3,0 4,0 3,0 4,0 6,1 1,1 2,3 2,5l0 9c0,2 0,3 0,4l0 0 -3 0zm-6 -2c1,0 2,0 3,-1 1,0 2,-1 2,-2l0 -4 -2 0c-4,0 -6,1 -6,4 0,1 0,1 1,2 0,1 1,1 2,1z"/>
  <path id="11" class="fil5" d="M3860 15984l0 -19 8 0c2,0 4,0 6,1 1,1 2,2 2,4 0,1 -1,2 -1,3 -1,0 -1,1 -2,1 1,1 2,1 2,2 1,1 1,2 1,3 0,2 0,3 -2,4 -1,1 -3,1 -5,1l-9 0zm3 -8l0 6 6 0c1,0 2,-1 3,-1 1,-1 1,-1 1,-2 0,-2 -1,-3 -4,-3l-6 0zm0 -3l5 0c3,0 4,-1 4,-3 0,-1 -1,-2 -4,-2l-5 0 0 5z"/>
  <path id="12" class="fil5" d="M3893 15984c0,0 0,-1 -1,-2 -1,2 -3,3 -5,3 -2,0 -4,-1 -5,-2 -1,-1 -2,-2 -2,-4 0,-2 1,-4 3,-5 1,-1 3,-1 6,-1l3 0 0 -2c0,-1 0,-2 -1,-3 0,0 -1,-1 -3,-1 -1,0 -2,1 -3,1 -1,1 -1,1 -1,2l-3 0c0,-1 0,-2 1,-3 0,0 1,-1 3,-2 1,0 2,0 3,0 3,0 4,0 6,1 1,1 2,3 2,5l0 9c0,2 0,3 0,4l0 0 -3 0zm-6 -2c1,0 2,0 3,-1 1,0 2,-1 2,-2l0 -4 -2 0c-4,0 -6,1 -6,4 0,1 0,1 1,2 0,1 1,1 2,1z"/>
  <path id="13" class="fil5" d="M3921 15970c0,-1 -1,-1 -1,-2 -1,-1 -2,-1 -3,-1 -1,0 -2,1 -3,1 -1,1 -1,1 -1,2l-4 0c0,-1 1,-3 3,-4 1,-1 3,-1 5,-1 2,0 4,0 5,1 1,1 2,2 2,4 0,1 0,2 -1,3 0,0 -1,1 -2,1 2,1 3,3 3,5 0,2 0,3 -2,4 -1,1 -3,2 -5,2 -2,0 -4,-1 -6,-2 -1,-1 -2,-3 -2,-4l3 0c0,1 1,1 2,2 1,1 2,1 3,1 1,0 2,0 3,-1 1,0 1,-1 1,-2 0,-1 0,-2 -1,-2 -1,-1 -2,-1 -3,-1l-3 0 0 -3 3 0c3,0 4,-1 4,-3z"/>
  <path id="14" class="fil5" d="M3941 15984c0,0 -1,-1 -1,-2 -1,2 -3,3 -5,3 -2,0 -4,-1 -5,-2 -1,-1 -2,-2 -2,-4 0,-2 1,-4 3,-5 1,-1 3,-1 6,-1l3 0 0 -2c0,-1 0,-2 -1,-3 0,0 -1,-1 -3,-1 -1,0 -2,1 -3,1 -1,1 -1,1 -1,2l-3 0c0,-1 0,-2 1,-3 0,0 1,-1 2,-2 2,0 3,0 4,0 3,0 4,0 6,1 1,1 2,3 2,5l0 9c0,2 0,3 0,4l0 0 -3 0zm-6 -2c1,0 2,0 3,-1 1,0 2,-1 2,-2l0 -4 -2 0c-4,0 -6,1 -6,4 0,1 0,1 1,2 0,1 1,1 2,1z"/>
  <polygon id="15" class="fil5" points="3952,15965 3952,15982 3959,15982 3959,15965 3963,15965 3963,15982 3970,15982 3970,15965 3973,15965 3973,15982 3976,15982 3976,15990 3973,15990 3973,15984 3949,15984 3949,15965 "/>
  <polygon id="16" class="fil5" points="3992,15965 3995,15965 3995,15984 3992,15984 3992,15970 3983,15984 3980,15984 3980,15965 3983,15965 3983,15979 "/>
  <polygon id="17" class="fil5" points="4004,15965 4004,15982 4011,15982 4011,15965 4014,15965 4014,15982 4022,15982 4022,15965 4025,15965 4025,15982 4028,15982 4027,15990 4024,15990 4024,15984 4001,15984 4001,15965 "/>
  <path id="18" class="fil5" d="M4039 15985c-2,0 -4,-1 -6,-3 -2,-2 -3,-4 -3,-7l0 0c0,-2 1,-4 2,-6 0,-1 1,-2 3,-3 1,-1 2,-1 4,-1 2,0 4,0 6,2 1,2 2,4 2,7l0 2 -13 0c0,2 0,3 1,4 2,1 3,2 5,2 1,0 2,0 3,-1 0,0 1,-1 2,-2l2 2c-2,2 -4,4 -8,4zm0 -18c-1,0 -3,1 -3,2 -1,1 -2,2 -2,4l10 0 0 0c0,-2 -1,-3 -2,-4 -1,-1 -2,-2 -3,-2z"/>
  <polygon id="19" class="fil5" points="4067,15984 4063,15984 4063,15976 4054,15976 4054,15984 4051,15984 4051,15965 4054,15965 4054,15973 4063,15973 4063,15965 4067,15965 "/>
  <path id="20" class="fil5" d="M4076 15972l5 0c2,0 4,0 5,1 1,1 2,3 2,5 0,2 -1,3 -2,5 -1,1 -3,1 -5,1l-9 0 0 -19 4 0 0 7zm19 12l-3 0 0 -19 3 0 0 19zm-19 -10l0 8 5 0c1,0 2,-1 3,-1 0,-1 1,-2 1,-3 0,-1 -1,-2 -1,-3 -1,0 -2,-1 -3,-1l-5 0z"/>
  <polygon id="21" class="fil5" points="4114,15982 4126,15982 4126,15984 4110,15984 4110,15958 4114,15958 "/>
  <path id="22" class="fil5" d="M4142 15984c-1,0 -1,-1 -1,-2 -1,2 -3,3 -5,3 -2,0 -4,-1 -5,-2 -1,-1 -2,-2 -2,-4 0,-2 1,-4 2,-5 2,-1 4,-1 7,-1l3 0 0 -2c0,-1 0,-2 -1,-3 -1,0 -2,-1 -3,-1 -1,0 -2,1 -3,1 -1,1 -1,1 -1,2l-4 0c0,-1 1,-2 2,-3 0,0 1,-1 2,-2 2,0 3,0 4,0 2,0 4,0 6,1 1,1 1,3 1,5l0 9c0,2 1,3 1,4l0 0 -3 0zm-6 -2c1,0 2,0 3,-1 1,0 2,-1 2,-2l0 -4 -2 0c-5,0 -7,1 -7,4 0,1 1,1 1,2 1,1 2,1 3,1z"/>
  <path id="23" class="fil5" d="M4153 15984l-3 0 0 -19 3 0 0 19zm-3 -24c0,-1 0,-1 0,-2 1,0 1,0 2,0 0,0 1,0 1,0 1,1 1,1 1,2 0,0 0,1 -1,1 0,0 -1,1 -1,1 -1,0 -1,-1 -2,-1 0,0 0,-1 0,-1z"/>
  <polygon id="24" class="fil5" points="4164,15975 4162,15978 4162,15984 4159,15984 4159,15957 4162,15957 4162,15973 4164,15971 4170,15965 4174,15965 4166,15973 4175,15984 4171,15984 "/>
  <path id="25" class="fil5" d="M4189 15984c0,0 0,-1 0,-2 -2,2 -4,3 -6,3 -2,0 -3,-1 -4,-2 -2,-1 -2,-2 -2,-4 0,-2 1,-4 2,-5 2,-1 4,-1 7,-1l3 0 0 -2c0,-1 -1,-2 -1,-3 -1,0 -2,-1 -3,-1 -1,0 -2,1 -3,1 -1,1 -1,1 -1,2l-4 0c0,-1 1,-2 1,-3 1,0 2,-1 3,-2 1,0 2,0 4,0 2,0 4,0 5,1 1,1 2,3 2,5l0 9c0,2 0,3 1,4l0 0 -4 0zm-5 -2c1,0 2,0 3,-1 1,0 1,-1 2,-2l0 -4 -3 0c-4,0 -6,1 -6,4 0,1 0,1 1,2 1,1 2,1 3,1z"/>
  <path id="26" class="fil5" d="M4280 15983c0,-1 0,-1 1,-2 0,0 1,0 1,0 1,0 1,0 2,0 0,1 0,1 0,2 0,0 0,1 0,1 -1,0 -1,1 -2,1 0,0 -1,-1 -1,-1 -1,0 -1,-1 -1,-1z"/>
  <path id="27" class="fil5" d="M4298 15982c1,0 2,0 3,-1 1,-1 1,-2 1,-3l3 0c0,1 0,2 -1,3 0,1 -1,2 -3,3 -1,0 -2,1 -3,1 -3,0 -5,-1 -7,-3 -1,-2 -2,-4 -2,-7l0 -1c0,-2 0,-3 1,-5 1,-1 2,-2 3,-3 1,-1 3,-1 5,-1 2,0 4,0 5,1 2,2 2,3 2,6l-3 0c0,-2 0,-3 -1,-4 -1,0 -2,-1 -3,-1 -2,0 -3,1 -4,2 -1,1 -2,3 -2,5l0 1c0,2 1,4 2,5 1,1 2,2 4,2z"/>
  <path id="28" class="fil5" d="M4308 15974c0,-1 1,-3 1,-5 1,-1 2,-2 4,-3 1,-1 2,-1 4,-1 3,0 5,0 7,2 1,2 2,5 2,8l0 0c0,2 0,3 -1,5 -1,1 -2,3 -3,3 -2,1 -3,2 -5,2 -3,0 -5,-1 -6,-3 -2,-2 -3,-4 -3,-7l0 -1zm4 1c0,2 0,4 1,5 1,1 2,2 4,2 2,0 3,-1 4,-2 1,-1 2,-3 2,-6 0,-2 -1,-3 -2,-5 -1,-1 -2,-2 -4,-2 -2,0 -3,1 -4,2 -1,2 -1,3 -1,6z"/>
  <path id="29" class="fil5" d="M4333 15965l0 2c2,-2 4,-2 6,-2 3,0 5,1 6,3 0,-1 1,-2 2,-3 1,0 3,0 4,0 4,0 6,2 6,6l0 13 -3 0 0 -12c0,-2 0,-3 -1,-4 0,0 -2,-1 -3,-1 -1,0 -2,1 -3,1 -1,1 -1,2 -2,3l0 13 -3 0 0 -12c0,-3 -1,-5 -4,-5 -2,0 -4,1 -5,3l0 14 -3 0 0 -19 3 0z"/>
  <path id="30" class="fil5" d="M4205 15982c1,0 2,0 3,-1 1,-1 2,-2 2,-3l3 0c0,1 -1,2 -1,3 -1,1 -2,2 -3,3 -1,0 -2,1 -4,1 -2,0 -5,-1 -6,-3 -2,-2 -2,-4 -2,-7l0 -1c0,-2 0,-3 1,-5 0,-1 1,-2 3,-3 1,-1 2,-1 4,-1 2,0 4,0 6,1 1,2 2,3 2,6l-3 0c0,-2 -1,-3 -2,-4 -1,0 -2,-1 -3,-1 -2,0 -3,1 -4,2 -1,1 -1,3 -1,5l0 1c0,2 0,4 1,5 1,1 2,2 4,2z"/>
  <path id="31" class="fil5" d="M4216 15974c0,-1 0,-3 1,-5 1,-1 2,-2 3,-3 1,-1 3,-1 5,-1 2,0 4,0 6,2 2,2 3,5 3,8l0 0c0,2 -1,3 -2,5 0,1 -1,3 -3,3 -1,1 -3,2 -4,2 -3,0 -5,-1 -7,-3 -1,-2 -2,-4 -2,-7l0 -1zm3 1c0,2 1,4 2,5 1,1 2,2 4,2 1,0 3,-1 4,-2 1,-1 1,-3 1,-6 0,-2 0,-3 -1,-5 -1,-1 -3,-2 -4,-2 -2,0 -3,1 -4,2 -1,2 -2,3 -2,6z"/>
  <polygon id="32" class="fil5" points="4241,15984 4238,15984 4238,15957 4241,15957 "/>
  <path id="33" class="fil5" d="M4246 15974c0,-1 0,-3 1,-5 1,-1 2,-2 3,-3 1,-1 3,-1 5,-1 2,0 4,0 6,2 2,2 2,5 2,8l0 0c0,2 0,3 -1,5 0,1 -1,3 -3,3 -1,1 -3,2 -4,2 -3,0 -5,-1 -7,-3 -1,-2 -2,-4 -2,-7l0 -1zm3 1c0,2 1,4 2,5 1,1 2,2 4,2 1,0 3,-1 4,-2 1,-1 1,-3 1,-6 0,-2 0,-3 -1,-5 -1,-1 -3,-2 -4,-2 -2,0 -3,1 -4,2 -1,2 -2,3 -2,6z"/>
  <path id="34" class="fil5" d="M4277 15968c0,0 -1,0 -2,0 -2,0 -3,1 -4,3l0 13 -3 0 0 -19 3 0 0 2c1,-2 3,-2 5,-2 0,0 1,0 1,0l0 3z"/>
  <polygon class="fil5" points="784,15961 791,15961 791,15994 798,15994 798,15956 778,15956 778,15994 784,15994 "/>
  <path id="1" class="fil5" d="M808 15965c0,-3 1,-4 3,-4 2,0 3,1 3,4l0 21c0,2 -1,3 -3,3 -2,0 -3,-1 -3,-3l0 -21zm-6 20c0,6 3,10 9,10 6,0 9,-4 9,-10l0 -20c0,-6 -3,-10 -9,-10 -6,0 -9,4 -9,10l0 20z"/>
  <path id="2" class="fil5" d="M822 15995l1 0c6,0 9,-3 9,-10l1 -24 5 0 0 33 6 0 0 -38 -17 0 -1 29c0,4 -1,4 -4,4l0 6z"/>
  <polygon id="3" class="fil5" points="860,15977 863,15967 863,15994 868,15994 868,15956 862,15956 857,15972 854,15980 854,15956 849,15956 849,15994 855,15994 "/>
  <polygon id="4" class="fil5" points="871,15961 877,15961 877,15994 883,15994 883,15961 890,15961 890,15956 871,15956 "/>
  <polygon id="5" class="fil5" points="904,15977 906,15967 906,15994 912,15994 912,15956 905,15956 900,15972 898,15980 898,15956 893,15956 893,15994 899,15994 "/>
  <polygon id="6" class="fil5" points="930,15994 936,15994 928,15973 936,15956 930,15956 922,15973 922,15956 916,15956 916,15994 922,15994 922,15983 924,15979 "/>
  <path id="7" class="fil5" d="M953 15956l-9 0 -6 38 5 0 1 -7 8 0 1 7 6 0 -6 -38zm-5 6l3 20 -6 0 3 -20z"/>
  <path id="8" class="fil5" d="M979 15956l-9 0 0 38 7 0 0 -14 2 0c7,0 10,-4 10,-10l0 -5c0,-6 -3,-9 -10,-9zm0 5c2,0 3,1 3,4l0 6c0,2 -1,3 -3,3l-2 0 0 -13 2 0z"/>
  <polygon id="9" class="fil5" points="998,15961 1008,15961 1008,15956 991,15956 991,15994 1008,15994 1008,15989 998,15989 998,15978 1006,15978 1006,15972 998,15972 "/>
  <path id="10" class="fil5" d="M1036 16000l0 -11 -3 0 0 -33 -17 0 -2 28c0,2 0,4 -1,5l-2 0 0 11 5 0 0 -6 14 0 0 6 6 0zm-14 -39l5 0 0 28 -8 0c1,-1 1,-2 1,-5l2 -23z"/>
  <path id="11" class="fil5" d="M1053 15956l-9 0 -7 38 6 0 1 -7 8 0 1 7 6 0 -6 -38zm-5 6l3 20 -6 0 3 -20z"/>
  <polygon id="12" class="fil5" points="1076,15994 1082,15994 1073,15973 1082,15956 1076,15956 1068,15973 1068,15956 1062,15956 1062,15994 1068,15994 1068,15983 1070,15979 "/>
  <polygon id="13" class="fil5" points="1085,15994 1101,15994 1101,16000 1107,16000 1107,15989 1104,15989 1104,15956 1098,15956 1098,15989 1091,15989 1091,15956 1085,15956 "/>
  <polygon id="14" class="fil5" points="1121,15977 1124,15967 1124,15994 1129,15994 1129,15956 1123,15956 1118,15972 1115,15980 1115,15956 1110,15956 1110,15994 1116,15994 "/>
  <polygon id="15" class="fil5" points="1145,15977 1147,15967 1147,15994 1153,15994 1153,15956 1146,15956 1141,15972 1139,15980 1139,15956 1134,15956 1134,15994 1140,15994 "/>
  <path id="16" class="fil5" d="M1233 15956l-9 0 -6 38 6 0 1 -7 7 0 1 7 6 0 -6 -38zm-5 6l3 20 -6 0 3 -20z"/>
  <path id="17" class="fil5" d="M1251 15956l-9 0 0 38 10 0c6,0 9,-3 9,-9l0 -3c0,-4 -1,-7 -5,-8 3,-2 4,-4 4,-8l0 -1c0,-6 -2,-9 -9,-9l0 0zm0 21c3,0 4,1 4,5l0 3c0,3 -1,4 -3,4l-4 0 0 -12 3 0zm0 -16c2,0 3,1 3,4l0 2c0,3 -1,4 -3,4l-3 0 0 -10 3 0z"/>
  <polygon id="18" class="fil5" points="1263,15961 1269,15961 1269,15994 1275,15994 1275,15961 1282,15961 1282,15956 1263,15956 "/>
  <path id="19" class="fil5" d="M1290 15965c0,-3 1,-4 3,-4 2,0 3,1 3,4l0 21c0,2 -1,3 -3,3 -2,0 -3,-1 -3,-3l0 -21zm-6 20c0,6 3,10 9,10 6,0 10,-4 10,-10l0 -20c0,-6 -4,-10 -10,-10 -6,0 -9,4 -9,10l0 20z"/>
  <path id="20" class="fil5" d="M1315 15956l-9 0 0 38 7 0 0 -14 2 0c7,0 10,-4 10,-10l0 -5c0,-6 -3,-9 -10,-9zm0 5c2,0 3,1 3,4l0 6c0,2 -1,3 -3,3l-2 0 0 -13 2 0z"/>
  <path id="21" class="fil5" d="M1339 15980l0 6c0,2 -1,3 -3,3 -2,0 -3,-1 -3,-3l0 -21c0,-3 1,-4 3,-4 2,0 3,1 3,4l0 4 6 0 0 -4c0,-6 -3,-10 -9,-10 -6,0 -9,4 -9,10l0 20c0,6 3,10 9,10 6,0 9,-4 9,-10l0 -5 -6 0z"/>
  <polygon id="22" class="fil5" points="1363,15994 1369,15994 1361,15973 1369,15956 1363,15956 1355,15973 1355,15956 1349,15956 1349,15994 1355,15994 1355,15983 1357,15979 "/>
  <polygon id="23" class="fil5" points="1383,15977 1386,15967 1386,15994 1391,15994 1391,15956 1385,15956 1380,15972 1377,15980 1377,15956 1372,15956 1372,15994 1378,15994 "/>
  <polygon id="24" class="fil5" points="1402,15961 1412,15961 1412,15956 1396,15956 1396,15994 1412,15994 1412,15989 1402,15989 1402,15978 1410,15978 1410,15972 1402,15972 "/>
  <polygon id="25" class="fil5" points="1431,15961 1438,15961 1438,15994 1444,15994 1444,15956 1425,15956 1425,15994 1431,15994 "/>
  <path id="26" class="fil5" d="M1457 15956l-9 0 0 38 6 0 0 -14 3 0c6,0 9,-4 9,-10l0 -5c0,-6 -3,-9 -9,-9zm0 5c2,0 3,1 3,4l0 6c0,2 -1,3 -3,3l-3 0 0 -13 3 0z"/>
  <path id="27" class="fil5" d="M1483 15956l-9 0 -6 38 5 0 1 -7 8 0 1 7 6 0 -6 -38zm-5 6l3 20 -6 0 3 -20z"/>
  <path id="28" class="fil5" d="M1501 15956l-9 0 0 38 10 0c6,0 9,-3 9,-9l0 -3c0,-4 -1,-7 -5,-8 3,-2 4,-4 4,-8l0 -1c0,-6 -3,-9 -9,-9l0 0zm0 21c3,0 4,1 4,5l0 3c0,3 -1,4 -3,4l-4 0 0 -12 3 0zm0 -16c2,0 3,1 3,4l0 2c0,3 -1,4 -4,4l-2 0 0 -10 3 0z"/>
  <path id="29" class="fil5" d="M1528 15956l-9 0 -6 38 5 0 2 -7 7 0 1 7 6 0 -6 -38zm-5 6l3 20 -6 0 3 -20z"/>
  <polygon id="30" class="fil5" points="1613,15994 1620,15994 1611,15973 1620,15956 1613,15956 1605,15973 1605,15956 1599,15956 1599,15994 1605,15994 1605,15983 1607,15979 "/>
  <path id="31" class="fil5" d="M1628 15965c0,-3 1,-4 3,-4 2,0 3,1 3,4l0 21c0,2 -1,3 -3,3 -2,0 -3,-1 -3,-3l0 -21zm-6 20c0,6 3,10 9,10 6,0 9,-4 9,-10l0 -20c0,-6 -3,-10 -9,-10 -6,0 -9,4 -9,10l0 20z"/>
  <polygon id="32" class="fil5" points="1650,15978 1657,15978 1657,15994 1664,15994 1664,15956 1657,15956 1657,15972 1650,15972 1650,15956 1644,15956 1644,15994 1650,15994 "/>
  <polygon id="33" class="fil5" points="1666,15961 1673,15961 1673,15994 1679,15994 1679,15961 1685,15961 1685,15956 1666,15956 "/>
  <path id="34" class="fil5" d="M1701 15956l-9 0 -6 38 6 0 1 -7 7 0 1 7 7 0 -7 -38zm-4 6l3 20 -6 0 3 -20z"/>
  <polygon id="35" class="fil5" points="1724,15994 1731,15994 1722,15973 1731,15956 1725,15956 1717,15973 1717,15956 1710,15956 1710,15994 1717,15994 1717,15983 1718,15979 "/>
  <polygon id="36" class="fil5" points="1732,15961 1738,15961 1738,15994 1744,15994 1744,15961 1751,15961 1751,15956 1732,15956 "/>
  <path id="37" class="fil5" d="M1762 15994c6,0 9,-3 9,-9l0 -5c0,-6 -3,-10 -9,-10l-3 0 0 -14 -6 0 0 38 9 0zm-3 -5l0 -13 3 0c2,0 3,1 3,3l0 6c0,3 -1,4 -3,4l-3 0zm22 5l0 -38 -6 0 0 38 6 0z"/>
  <polygon id="38" class="fil5" points="1184,15998 1189,15998 1189,15952 1184,15952 "/>
  <polygon id="39" class="fil5" points="1564,15998 1569,15998 1569,15952 1564,15952 "/>
  <g>
  </g>
  <g style="clip-path:url(#id13)">
   <g>
   </g>
   <g style="clip-path:url(#id14)">
    <image id="senatus_G91rsF.jpg" x="-16" y="12562" width="1515" height="1010" xlink:href="796_Images\796_ImgID5.png"/>
   </g>
   <g style="clip-path:url(#id15)">
   </g>
  </g>
  <polygon class="fil4" points="237,12562 1247,12562 1247,13572 237,13572 "/>
  <g>
  </g>
  <g style="clip-path:url(#id16)">
   <g>
   </g>
   <g style="clip-path:url(#id17)">
    <image id="rekonstrukciya-starogo-doma-v-kanade-5.jpg" x="1183" y="12562" width="1422" height="1010" xlink:href="796_Images\796_ImgID6.png"/>
   </g>
   <g style="clip-path:url(#id18)">
   </g>
  </g>
  <polygon class="fil4" points="1320,12562 2330,12562 2330,13572 1320,13572 "/>
  <g>
  </g>
  <g style="clip-path:url(#id19)">
   <g>
   </g>
   <g style="clip-path:url(#id20)">
    <image id="_284646.jpg" x="2011" y="12562" width="1796" height="1010" xlink:href="796_Images\796_ImgID7.png"/>
   </g>
   <g style="clip-path:url(#id21)">
   </g>
  </g>
  <polygon class="fil4" points="2403,12562 3413,12562 3413,13572 2403,13572 "/>
  <g>
  </g>
  <g style="clip-path:url(#id22)">
   <g>
   </g>
   <g style="clip-path:url(#id23)">
    <image id="d43fdcd27a56d16e2baf084dacc9448a.jpg" x="3450" y="12562" width="1513" height="1010" xlink:href="796_Images\796_ImgID8.png"/>
   </g>
   <g style="clip-path:url(#id24)">
   </g>
  </g>
  <polygon class="fil4" points="3487,12562 4497,12562 4497,13572 3487,13572 "/>
  <g>
   <rect class="fil2" x="2945" y="9854" width="468" height="468"/>
   <g>
    <path class="fil1" d="M3190 10084c0,0 1,-1 1,-1l2 -2c0,0 1,0 1,-1 1,0 1,-1 2,-2 0,0 1,-1 2,-2 0,0 1,-1 1,-1 1,-1 2,-2 3,-2 0,-1 0,-1 0,-1l2 -1c2,-2 3,-3 5,-4 4,-3 8,-5 12,-6 5,-1 11,-1 16,1 0,0 1,0 1,0 1,1 1,1 2,1 0,0 1,1 1,1 0,0 1,0 1,0 2,2 4,4 6,6 1,3 2,5 3,8 1,5 1,10 -1,15 -1,2 -3,5 -4,7 -1,1 -2,2 -3,2l-3 2c-1,1 -4,3 -7,3 -1,1 -3,1 -4,1 0,0 -1,0 -1,0 0,0 0,0 -1,0l-1 0c-1,0 -4,0 -5,-1l-2 0c-1,-1 -1,-1 -1,-1 -2,-1 -5,-2 -6,-3 -2,-1 -3,-1 -4,-3l-7 -5c0,0 0,0 0,-1l-1 -1c-1,0 -1,0 -1,0l-4 -4c0,0 0,0 0,-1l-3 -2c0,0 -2,-2 -2,-2zm-100 1l0 -2c0,-3 0,-7 1,-10 1,-2 1,-3 2,-5 1,-2 2,-4 3,-6l5 -5c1,-1 2,-2 3,-3 0,0 0,0 0,0 0,-1 0,-1 0,-1 2,-1 3,-2 4,-3l4 -2c1,0 2,-1 3,-1 5,-2 9,-3 14,-3 3,0 5,0 7,0 2,0 4,1 6,1 0,1 1,1 1,1 4,1 7,3 10,5 1,0 1,0 2,1 1,0 2,1 3,1 2,2 4,4 6,5 0,0 0,0 0,1 0,0 0,0 0,0l2 1c1,1 1,1 2,2l1 1c1,1 2,2 3,3l5 5c0,0 2,2 2,2 0,0 1,-1 1,-1 0,0 0,0 1,0 0,-1 2,-3 3,-4l4 -4c0,0 0,0 1,0l4 -4c1,-1 3,-3 4,-4 2,-1 4,-2 6,-4l3 -2c1,-1 3,-1 5,-2 5,-3 11,-4 17,-4 7,0 9,0 15,2 0,0 0,0 1,0l2 1c3,1 6,3 8,5 2,1 4,3 6,6 0,0 0,0 1,0 1,2 2,3 2,5 1,0 1,0 1,1 1,2 2,4 3,7 2,7 2,15 1,23 -1,2 -2,3 -2,5 -1,2 -2,4 -3,5 -2,3 -4,6 -6,9 -1,0 -1,0 -2,1l0 0c0,1 0,1 -1,1 0,0 0,0 0,0 -1,1 -3,2 -4,3 -1,1 -2,1 -3,2l-3 1c0,0 -1,0 -1,1 -6,2 -13,3 -20,2 -4,0 -8,-1 -12,-3 -1,-1 -2,-1 -3,-2l-6 -3c-1,-1 -1,-1 -2,-1 0,-1 -1,-2 -2,-2 -1,-1 -1,-1 -2,-1 -1,-1 -2,-2 -3,-3 -1,-1 -1,-2 -2,-2 -1,-1 -1,-1 -1,-1l-3 -2c0,-1 0,-1 -1,-2 -1,0 -4,-4 -5,-5 0,0 0,0 0,0 -1,-1 -2,-2 -2,-1l-10 9c0,1 -1,1 -1,1l-3 3c-1,1 -3,2 -5,4l-5 3c-4,3 -9,6 -15,7 -4,1 -8,2 -12,2 -7,0 -12,-2 -18,-5 0,0 0,0 -1,0 0,0 0,-1 0,-1 -3,-1 -5,-3 -7,-4 0,-1 0,-1 0,-1 -1,-1 -3,-2 -3,-3 -4,-5 -7,-11 -8,-17 -1,-3 -1,-6 -1,-9zm40 23c-3,0 -7,0 -10,-2 -1,0 -1,-1 -2,-1 0,0 -1,0 -1,-1l-2 -1c0,0 0,0 0,-1 -1,0 -2,-1 -3,-3 -1,0 -1,-1 -1,-1 -1,-2 -2,-4 -3,-6 -1,-5 -2,-10 0,-15 0,-1 1,-3 1,-3 2,-5 5,-8 9,-10 2,-2 5,-3 7,-3 7,-2 15,0 21,4 2,1 3,1 4,3 1,0 2,1 2,1l4 3c0,1 2,2 3,3 1,1 2,2 3,3l4 4c1,1 2,2 2,2 0,1 -3,4 -4,4 0,0 0,0 0,1l-2 1c0,0 0,0 0,0 -1,1 -2,2 -2,3l-3 2c-1,1 -5,5 -7,6 -1,0 -1,1 -2,1 -1,0 -1,1 -1,1l-3 2c-1,0 -1,0 -1,0l-3 1c0,0 -1,0 -1,1 -3,0 -6,1 -9,1z"/>
    <polygon class="fil1" points="3149,10012 3210,10012 3232,9961 3207,9975 3197,10000 3186,10000 3194,9977 3179,9961 3165,9977 3173,10000 3162,10000 3151,9975 3127,9961 "/>
    <path class="fil1" d="M3179 10215c-13,-10 -28,-23 -32,-37 -5,-18 19,-29 32,-12 13,-17 38,-6 33,12 -4,14 -19,27 -33,37z"/>
   </g>
  </g>
  <g>
   <rect class="fil2" x="778" y="9854" width="468" height="468"/>
   <polygon class="fil5" points="923,10033 919,10047 914,10033 908,10033 914,10051 907,10071 913,10071 918,10056 923,10071 930,10071 923,10051 929,10033 "/>
   <path id="1" class="fil5" d="M953 10033l-7 0 -2 13 -2 9 -2 -9 -3 -13 -6 0 8 30 0 0c0,3 -2,3 -5,3l0 5c8,1 11,-2 12,-9l7 -29z"/>
   <path id="2" class="fil5" d="M979 10077l0 -11 -3 0 0 -33 -17 0 -1 28c0,2 -1,4 -2,5l-2 0 0 11 6 0 0 -6 13 0 0 6 6 0zm-14 -39l5 0 0 28 -8 0c1,-1 2,-2 2,-5l1 -23z"/>
   <path id="3" class="fil5" d="M988 10041c0,-2 1,-3 3,-3 2,0 3,1 3,3l0 21c0,3 -1,4 -3,4 -2,0 -3,-1 -3,-4l0 -21zm-6 21c0,6 3,10 9,10 6,0 9,-4 9,-10l0 -20c0,-6 -3,-10 -9,-10 -6,0 -9,4 -9,10l0 20z"/>
   <polygon id="4" class="fil5" points="1022,10033 1016,10033 1016,10048 1009,10033 1003,10033 1010,10048 1003,10071 1009,10071 1014,10054 1016,10057 1016,10071 1022,10071 1022,10057 1023,10054 1029,10071 1035,10071 1028,10048 1035,10033 1029,10033 1022,10048 "/>
   <polygon id="5" class="fil5" points="1044,10055 1051,10055 1051,10071 1057,10071 1057,10033 1051,10033 1051,10049 1044,10049 1044,10033 1038,10033 1038,10071 1044,10071 "/>
   <polygon id="6" class="fil5" points="1073,10054 1076,10044 1076,10071 1081,10071 1081,10033 1074,10033 1069,10049 1067,10057 1067,10033 1062,10033 1062,10071 1068,10071 "/>
   <polygon id="7" class="fil5" points="1099,10071 1106,10071 1097,10050 1106,10033 1099,10033 1091,10049 1091,10033 1085,10033 1085,10071 1091,10071 1091,10059 1093,10056 "/>
   <polygon id="8" class="fil5" points="1120,10054 1122,10044 1122,10071 1128,10071 1128,10033 1121,10033 1116,10049 1114,10057 1114,10033 1108,10033 1108,10071 1115,10071 "/>
   <polygon id="9" class="fil5" points="907,10120 910,10111 910,10138 915,10138 915,10099 909,10099 904,10115 901,10124 901,10099 896,10099 896,10138 902,10138 "/>
   <path id="10" class="fil5" d="M952 10143l0 -10 -3 0 0 -34 -17 0 -1 29c0,2 -1,3 -2,5l-2 0 0 10 6 0 0 -5 13 0 0 5 6 0zm-14 -38l5 0 0 28 -8 0c1,-1 2,-3 2,-6l1 -22z"/>
   <polygon id="11" class="fil5" points="967,10120 969,10111 969,10138 975,10138 975,10099 968,10099 963,10115 961,10124 961,10099 955,10099 955,10138 962,10138 "/>
   <path id="12" class="fil5" d="M991 10111c0,3 -2,4 -4,4l-2 0 0 6 2 0c3,0 4,1 4,5l0 3c0,3 -1,4 -3,4 -2,0 -3,-1 -3,-4l0 -5 -6 0 0 5c0,6 3,10 9,10 6,0 9,-4 9,-10l0 -3c0,-4 -1,-7 -4,-8 3,-2 4,-4 4,-8l0 -1c0,-7 -3,-10 -9,-10 -6,0 -9,3 -9,9l0 3 5 0 0 -3c0,-3 2,-4 4,-4 2,0 3,1 3,5l0 2z"/>
   <path id="13" class="fil5" d="M1015 10099l-9 0 -7 39 6 0 1 -7 8 0 1 7 6 0 -6 -39zm-5 7l3 20 -6 0 3 -20z"/>
   <path id="14" class="fil5" d="M1030 10138l-6 0 0 -39 5 0 0 25 2 -9 5 -16 7 0 0 39 -5 0 0 -27 -3 9 -5 18zm6 -47c0,2 -1,2 -3,2 -1,0 -2,0 -2,-2l-4 0c0,3 2,6 6,6 5,0 7,-3 7,-6l-4 0z"/>
   <polygon id="15" class="fil5" points="1054,10121 1061,10121 1061,10138 1067,10138 1067,10099 1061,10099 1061,10116 1054,10116 1054,10099 1048,10099 1048,10138 1054,10138 "/>
   <polygon id="16" class="fil5" points="1077,10105 1088,10105 1088,10099 1071,10099 1071,10138 1088,10138 1088,10133 1077,10133 1077,10121 1086,10121 1086,10116 1077,10116 "/>
   <path id="17" class="fil5" d="M1101 10099l-9 0 0 39 6 0 0 -15 3 0c6,0 9,-3 9,-9l0 -5c0,-6 -3,-10 -9,-10zm0 6c2,0 3,1 3,3l0 6c0,3 -1,4 -3,4l-3 0 0 -13 3 0z"/>
   <path id="18" class="fil5" d="M1122 10138c6,0 9,-3 9,-10l0 -5c0,-6 -3,-9 -9,-9l-3 0 0 -15 -6 0 0 39 9 0zm-3 -5l0 -14 3 0c2,0 3,1 3,4l0 6c0,3 -1,4 -3,4l-3 0zm21 5l0 -39 -6 0 0 39 6 0z"/>
  </g>
  <g>
   <rect class="fil2" x="3487" y="9854" width="468" height="468"/>
   <path class="fil5" d="M3644 10035l-9 0 0 39 10 0c6,0 9,-3 9,-9l0 -4c0,-4 -1,-7 -5,-8 3,-1 4,-4 4,-8l0 -1c0,-6 -2,-9 -9,-9l0 0zm0 21c3,0 4,1 4,5l0 3c0,3 -1,4 -3,4l-4 0 0 -12 3 0zm0 -16c2,0 3,2 3,4l0 3c0,3 -1,4 -3,4l-3 0 0 -11 3 0z"/>
   <path id="1" class="fil5" d="M3670 10059l0 6c0,3 -2,4 -4,4 -2,0 -3,-1 -3,-4l0 -21c0,-3 1,-4 3,-4 2,0 4,1 4,4l0 4 5 0 0 -4c0,-6 -3,-10 -9,-10 -6,0 -9,4 -9,10l0 20c0,7 3,10 9,10 6,0 9,-3 9,-10l0 -5 -5 0z"/>
   <polygon id="2" class="fil5" points="3677,10040 3684,10040 3684,10074 3690,10074 3690,10040 3696,10040 3696,10035 3677,10035 "/>
   <path id="3" class="fil5" d="M3719 10035l-6 0 -3 13 -2 9 -2 -9 -3 -13 -6 0 8 30 0 0c0,3 -2,4 -5,3l0 6c9,0 11,-3 12,-10l7 -29z"/>
   <polygon id="4" class="fil5" points="3728,10040 3735,10040 3735,10074 3741,10074 3741,10035 3721,10035 3721,10074 3728,10074 "/>
   <polygon id="5" class="fil5" points="3757,10056 3759,10046 3759,10074 3765,10074 3765,10035 3758,10035 3753,10051 3751,10060 3751,10035 3745,10035 3745,10074 3751,10074 "/>
   <polygon id="6" class="fil5" points="3767,10040 3774,10040 3774,10074 3780,10074 3780,10040 3786,10040 3786,10035 3767,10035 "/>
   <path id="7" class="fil5" d="M3798 10074c6,0 9,-4 9,-10l0 -5c0,-6 -3,-9 -9,-9l-3 0 0 -15 -6 0 0 39 9 0zm-3 -6l0 -13 3 0c2,0 3,1 3,4l0 6c0,2 -1,3 -3,3l-3 0z"/>
   <path id="8" class="fil5" d="M3614 10102l-9 0 0 38 10 0c6,0 9,-3 9,-9l0 -3c0,-4 -1,-7 -5,-8 3,-2 4,-4 4,-8l0 -1c0,-6 -2,-9 -9,-9l0 0zm0 21c3,0 4,1 4,5l0 3c0,3 -1,4 -3,4l-4 0 0 -12 3 0zm0 -16c2,0 3,1 3,4l0 2c0,3 -1,4 -3,4l-3 0 0 -10 3 0z"/>
   <polygon id="9" class="fil5" points="3636,10140 3652,10140 3652,10135 3642,10135 3642,10102 3636,10102 "/>
   <path id="10" class="fil5" d="M3669 10102l-9 0 -7 38 6 0 1 -7 8 0 1 7 6 0 -6 -38zm-5 6l3 20 -6 0 3 -20z"/>
   <polygon id="11" class="fil5" points="3678,10140 3684,10140 3684,10102 3678,10102 "/>
   <polygon id="12" class="fil5" points="3702,10140 3708,10140 3700,10119 3708,10102 3702,10102 3694,10119 3694,10102 3688,10102 3688,10140 3694,10140 3694,10129 3696,10125 "/>
   <path id="13" class="fil5" d="M3725 10102l-9 0 -6 38 5 0 1 -7 8 0 1 7 6 0 -6 -38zm-5 6l3 20 -6 0 3 -20z"/>
   <path id="14" class="fil5" d="M3746 10126l0 6c0,2 -1,3 -3,3 -2,0 -4,-1 -4,-3l0 -21c0,-3 2,-4 4,-4 2,0 3,1 3,4l0 4 6 0 0 -4c0,-6 -4,-10 -10,-10 -6,0 -9,4 -9,10l0 20c0,6 3,10 9,10 6,0 10,-4 10,-10l0 -5 -6 0z"/>
   <path id="15" class="fil5" d="M3761 10111c0,-3 1,-4 3,-4 2,0 3,1 3,4l0 21c0,2 -1,3 -3,3 -2,0 -3,-1 -3,-3l0 -21zm-6 20c0,6 3,10 9,10 6,0 9,-4 9,-10l0 -20c0,-6 -3,-10 -9,-10 -6,0 -9,4 -9,10l0 20z"/>
   <polygon id="16" class="fil5" points="3777,10140 3793,10140 3793,10135 3783,10135 3783,10102 3777,10102 "/>
   <path id="17" class="fil5" d="M3802 10111c0,-3 1,-4 3,-4 2,0 3,1 3,4l0 21c0,2 -1,3 -3,3 -2,0 -3,-1 -3,-3l0 -21zm-6 20c0,6 3,10 9,10 6,0 9,-4 9,-10l0 -20c0,-6 -3,-10 -9,-10 -6,0 -9,4 -9,10l0 20z"/>
   <path id="18" class="fil5" d="M3837 10140c-1,-1 -1,-2 -1,-4l0 -6c0,-4 -1,-7 -4,-9 3,-1 4,-3 4,-7l0 -3c0,-6 -2,-9 -9,-9l-9 0 0 38 6 0 0 -15 2 0c3,0 4,1 4,5l0 6c0,3 1,3 1,4l6 0zm-10 -33c2,0 3,1 3,4l0 4c0,3 -1,4 -3,4l-3 0 0 -12 3 0z"/>
  </g>
  <rect class="fil2" x="4028" y="9854" width="468" height="468"/>
  <g>
   <rect class="fil2" x="1320" y="9854" width="468" height="468"/>
   <polygon class="fil1" points="1554,9960 1601,10041 1688,10058 1626,10127 1637,10215 1552,10177 1471,10215 1481,10122 1420,10058 1511,10038 "/>
   <path class="fil3" d="M1577 10145c-1,-3 -2,-6 -2,-11l0 -13c0,-8 -2,-15 -8,-18 6,-2 8,-8 8,-17l0 -6c0,-14 -6,-20 -19,-20l-20 0 0 85 13 0 0 -35 4 0c6,0 9,3 9,11l0 13c0,7 1,9 1,11l14 0zm-22 -73c5,0 7,3 7,9l0 8c0,7 -3,9 -8,9l-5 0 0 -26 6 0z"/>
  </g>
  <g>
   <rect class="fil2" x="2403" y="9854" width="468" height="468"/>
   <g>
    <path class="fil1" d="M2522 9983l146 0 31 -18 0 18 23 0 31 -18 0 162 -231 0 0 -144zm23 69l0 -8 7 0 0 -29 -7 0 0 -8 25 0 0 8 -7 0 0 29 14 0 0 -14 8 0 0 22 -40 0zm124 47c2,0 3,1 3,2 0,2 -1,3 -3,3 -1,0 -2,-1 -2,-3 0,-1 1,-2 2,-2zm15 2c0,0 1,-1 1,-1 0,0 1,-1 1,-2l4 0c0,2 -1,3 -2,5 -1,1 -3,1 -4,1 -3,0 -4,-1 -6,-2 -1,-1 -1,-3 -1,-6l0 0c0,-1 0,-3 0,-4 1,-1 2,-2 3,-2 1,-1 2,-1 4,-1 2,0 3,0 4,1 1,1 2,3 2,5l-4 0c0,-1 -1,-2 -1,-2 0,-1 -1,-1 -2,-1 -1,0 -1,1 -2,2 0,1 0,2 0,3 0,1 0,2 1,3 0,0 1,1 2,1zm7 -5c0,-1 1,-3 1,-4 1,-1 2,-2 3,-2 1,-1 2,-1 4,-1 2,0 4,0 5,2 1,1 2,3 2,5l0 0c0,3 -1,5 -2,6 -1,1 -3,2 -5,2 -3,0 -4,-1 -6,-2 -1,-1 -2,-3 -2,-5l0 -1zm5 0c0,2 0,3 1,4 0,0 1,1 2,1 1,0 2,-2 2,-4l0 -1c0,-2 -1,-4 -2,-4 -2,0 -3,1 -3,4l0 0zm16 -7l0 2c1,-2 3,-2 5,-2 2,0 3,0 4,2 1,-2 2,-2 4,-2 3,0 5,1 5,5l0 10 -5 0 0 -10c0,0 0,-1 0,-1 -1,-1 -1,-1 -2,-1 -1,0 -2,1 -2,1l0 1 0 10 -5 0 0 -10c0,0 0,-1 0,-1 0,-1 -1,-1 -1,-1 -1,0 -2,1 -2,1l0 11 -5 0 0 -15 4 0zm-45 -54l10 -9 -6 0 0 -5 19 0 0 6 -3 0 -10 8 9 10 4 0 0 7 -9 0 -14 -17zm63 10l0 7 -15 0 0 -3c-3,2 -6,3 -9,3 -3,0 -6,-1 -8,-2 -2,-2 -3,-5 -3,-8 0,-3 1,-5 3,-7 3,-2 6,-3 9,-3 3,0 5,0 8,2l0 -2c0,-2 -1,-3 -2,-4 -1,-1 -2,-2 -4,-2 -2,0 -4,1 -6,3l-8 -2c2,-5 7,-7 15,-7 3,0 6,0 8,1 2,1 3,1 4,2 1,2 2,3 2,4 0,1 1,3 1,6l0 12 5 0zm-15 -5c-3,-1 -5,-2 -6,-2 -1,0 -2,0 -3,1 -1,1 -2,2 -2,3 0,1 1,2 2,3 0,1 1,1 2,1 2,0 4,-1 7,-3l0 -3zm-91 5l0 7 -15 0 0 -3c-3,2 -6,3 -9,3 -3,0 -6,-1 -8,-2 -2,-2 -3,-5 -3,-8 0,-3 1,-5 3,-7 3,-2 6,-3 9,-3 3,0 5,0 8,2l0 -2c0,-2 -1,-3 -2,-4 -1,-1 -2,-2 -4,-2 -2,0 -4,1 -6,3l-8 -2c2,-5 7,-7 15,-7 3,0 6,0 8,1 2,1 3,1 4,2 1,2 2,3 2,4 0,1 1,3 1,6l0 12 5 0zm-15 -5c-3,-1 -5,-2 -6,-2 -1,0 -2,0 -3,1 -1,1 -2,2 -2,3 0,1 1,2 2,3 0,1 1,1 2,1 2,0 4,-1 7,-3l0 -3zm23 -28c0,-2 0,-3 1,-4 1,-1 3,-2 4,-2 2,0 3,1 4,2 1,1 2,2 2,4 0,1 -1,2 -2,4 -1,1 -2,1 -4,1 -1,0 -3,0 -4,-1 -1,-2 -1,-3 -1,-4zm-5 16l0 -7 15 0 0 24 5 0 0 7 -20 0 0 -7 5 0 0 -17 -5 0zm23 24l0 -7 5 0 0 -31 -5 0 0 -7 15 0c0,44 0,-6 0,38l4 0 0 7 -19 0zm-100 12c0,-2 0,-3 1,-4 1,-1 3,-2 4,-2 2,0 3,1 4,2 1,1 2,2 2,4 0,1 -1,3 -2,4 -1,1 -2,1 -4,1 -1,0 -3,0 -4,-1 -1,-1 -1,-3 -1,-4zm-5 16l0 -7 15 0 0 24 5 0 0 7 -20 0 0 -7 5 0 0 -17 -5 0zm23 0l0 -7 15 0 0 3c3,-3 6,-4 9,-4 6,0 10,4 10,12l0 13 4 0 0 7 -14 0 0 -19c0,-2 -1,-3 -1,-3 -1,-1 -1,-1 -2,-1 -2,0 -4,0 -6,2l0 14 5 0 0 7 -20 0 0 -7 5 0 0 -17 -5 0zm61 17l0 7 -20 0 0 -7 5 0 0 -17 -4 0 0 -7 4 0 0 -3c0,-3 1,-6 3,-8 2,-3 5,-4 9,-4 5,0 8,2 10,5l-7 5c-1,-2 -2,-3 -3,-3 -1,0 -2,1 -2,4l0 4 5 0 0 7 -5 0 0 17 5 0zm20 8c-4,0 -8,-2 -11,-5 -3,-3 -5,-7 -5,-12 0,-5 2,-9 5,-12 3,-3 7,-4 11,-4 5,0 9,1 12,4 3,3 5,7 5,12 0,5 -2,9 -5,12 -3,3 -7,5 -12,5zm0 -8c2,0 4,-1 5,-2 1,-2 1,-4 1,-7 0,-3 0,-5 -1,-6 -1,-2 -3,-2 -5,-2 -4,0 -6,3 -6,8 0,3 1,5 2,6 1,2 2,3 4,3z"/>
    <path class="fil5" d="M2554 10209l-9 0 -14 -24 0 24 -9 0 0 -38 9 0 14 24 0 -24 9 0 0 38zm59 -16l-15 0 0 9 17 0 0 7 -26 0 0 -38 26 0 0 7 -17 0 0 8 15 0 0 7zm65 2l4 -24 10 0 -9 38 -9 0 -6 -22 -5 22 -9 0 -8 -38 9 0 4 24 6 -24 7 0 6 24zm66 4c0,-1 -1,-2 -2,-3 -1,-1 -2,-2 -5,-2 -2,-1 -4,-2 -6,-3 -5,-2 -7,-6 -7,-10 0,-2 1,-4 2,-6 1,-1 3,-2 5,-3 2,-1 5,-2 8,-2 3,0 5,1 7,2 2,1 4,2 5,4 2,2 2,4 2,6l-9 0c0,-1 -1,-3 -2,-3 -1,-1 -2,-2 -3,-2 -2,0 -3,1 -4,1 -1,1 -2,2 -2,3 0,1 1,2 2,3 1,1 3,2 5,2 3,1 5,2 7,3 4,3 6,6 6,10 0,4 -1,6 -4,8 -2,2 -6,3 -10,3 -3,0 -6,-1 -9,-2 -2,-1 -4,-2 -5,-4 -2,-2 -2,-4 -2,-7l9 0c0,2 1,4 2,5 1,1 2,1 5,1 1,0 3,0 4,-1 0,-1 1,-2 1,-3z"/>
   </g>
  </g>
  <polygon class="fil6" points="2403,10395 4497,10395 4497,12489 2403,12489 "/>
  <g style="clip-path:url(#id25)">
   <g>
   </g>
   <g style="clip-path:url(#id26)">
    <image id="Натюрморт_x0020_с_x0020_самоваром_x0020__x007b_2019_x007d_.jpg" x="2403" y="9999" width="2093" height="2886" xlink:href="796_Images\796_ImgID9.png"/>
   </g>
   <g style="clip-path:url(#id27)">
   </g>
  </g>
  <polygon class="fil4" points="2403,10395 4497,10395 4497,12489 2403,12489 "/>
  <g>
  </g>
  <g style="clip-path:url(#id28)">
   <g>
   </g>
   <g style="clip-path:url(#id29)">
    <image id="ozero-leto-gory.jpg" x="237" y="13221" width="4260" height="2662" xlink:href="796_Images\796_ImgID10.png"/>
   </g>
   <g style="clip-path:url(#id30)">
   </g>
  </g>
  <polygon class="fil4" points="237,13645 4497,13645 4497,15739 237,15739 "/>
  <g>
   <rect class="fil2" x="1862" y="9854" width="468" height="468"/>
   <g>
    <path class="fil5" d="M2199 10051c0,11 -2,19 -7,24 -4,5 -11,8 -21,8 -14,0 -27,-3 -40,-9 -15,-6 -22,-14 -22,-24 0,-7 4,-13 11,-18 7,-5 16,-8 25,-8 13,0 23,3 33,9 1,0 1,1 2,1 0,0 1,-1 1,-2 0,-3 -4,-8 -12,-13 -9,-6 -22,-9 -38,-9 -6,0 -11,0 -15,1 -22,2 -32,18 -32,46 0,11 1,24 4,37 13,1 26,1 40,1 3,0 8,0 14,0 7,-1 11,-1 12,-1 1,0 2,1 2,3 -1,4 -1,9 -1,13 0,10 1,21 3,31 -2,0 -6,1 -13,2 -6,1 -10,2 -12,2 -4,0 -6,-1 -7,-2 -1,-1 -1,-6 -2,-14 -1,-6 -4,-10 -7,-11 -2,-1 -10,-2 -24,-4 9,34 17,60 26,77 -33,6 -67,13 -102,21 -1,-4 -1,-8 -1,-10 0,-3 0,-5 1,-6 0,-1 2,-2 5,-2 12,-3 18,-7 18,-13 0,2 -1,-8 -4,-31 -2,-24 -3,-44 -3,-62 0,-25 2,-49 6,-70 -5,2 -11,3 -16,3 -5,0 -9,-1 -12,-3l2 -31c9,8 32,12 70,12 37,0 70,-3 99,-8 1,0 2,0 2,1 10,17 15,37 15,59z"/>
    <path class="fil1" d="M2169 10163c11,0 20,9 20,19 0,11 -9,20 -20,20 -11,0 -20,-9 -20,-20 0,-10 9,-19 20,-19z"/>
   </g>
  </g>
  <polygon class="fil7" points="2525,11379 2461,11442 2525,11505 2542,11488 2496,11442 2542,11396 "/>
  <polygon class="fil7" points="4375,11379 4438,11442 4375,11505 4358,11488 4404,11442 4358,11396 "/>
  <g>
   <polygon class="fil5" points="3330,11236 3335,11227 3343,11227 3334,11241 3343,11256 3335,11256 3330,11246 3325,11256 3317,11256 3325,11241 3317,11227 3325,11227 "/>
   <path id="1" class="fil5" d="M3357 11239l0 0 5 -12 7 0 -10 23c-1,2 -2,4 -3,5 -2,1 -3,1 -5,2l-2 0 -1 0 0 -6c0,0 1,0 2,0 1,0 2,0 2,-1 1,0 1,-1 1,-2l1 -1 -11 -20 8 0 6 12z"/>
   <path id="2" class="fil5" d="M3398 11263l-7 0 0 -7 -16 0 0 7 -7 0 0 -12 2 0c1,-1 2,-2 3,-4 0,-2 1,-4 1,-8l1 -12 20 0 0 24 3 0 0 12zm-20 -12l10 0 0 -19 -6 0 -1 7c0,5 -1,9 -3,12z"/>
   <path id="3" class="fil5" d="M3425 11242c0,3 0,5 -1,8 -1,2 -3,4 -5,5 -2,1 -4,2 -6,2 -3,0 -5,-1 -7,-2 -2,-1 -4,-3 -5,-5 -1,-2 -1,-5 -1,-8l0 -1c0,-3 0,-6 1,-8 1,-2 3,-4 5,-5 2,-1 4,-2 6,-2 3,0 5,1 7,2 2,1 4,3 5,5 1,2 1,5 1,8l0 1zm-7 -1c0,-3 0,-6 -1,-7 -1,-2 -3,-2 -5,-2 -3,0 -5,2 -5,8l0 2c0,3 0,5 1,7 1,1 3,2 5,2 1,0 3,-1 4,-2 1,-2 1,-4 1,-7l0 -1z"/>
   <polygon id="4" class="fil5" points="3456,11245 3452,11245 3452,11256 3445,11256 3445,11245 3441,11245 3436,11256 3427,11256 3436,11240 3427,11227 3436,11227 3442,11238 3445,11238 3445,11227 3452,11227 3452,11238 3455,11238 3461,11227 3470,11227 3461,11240 3470,11256 3461,11256 "/>
   <polygon id="5" class="fil5" points="3497,11256 3490,11256 3490,11244 3479,11244 3479,11256 3472,11256 3472,11227 3479,11227 3479,11238 3490,11238 3490,11227 3497,11227 "/>
   <polygon id="6" class="fil5" points="3519,11227 3526,11227 3526,11256 3519,11256 3519,11237 3508,11256 3501,11256 3501,11227 3508,11227 3508,11245 "/>
   <polygon id="7" class="fil5" points="3541,11244 3537,11244 3537,11256 3530,11256 3530,11227 3537,11227 3537,11238 3540,11238 3546,11227 3554,11227 3546,11240 3555,11256 3547,11256 "/>
   <polygon id="8" class="fil5" points="3575,11227 3582,11227 3582,11256 3575,11256 3575,11237 3564,11256 3557,11256 3557,11227 3564,11227 3564,11245 "/>
   <polygon id="9" class="fil5" points="3320,11284 3328,11284 3328,11314 3320,11314 3320,11295 3310,11314 3303,11314 3303,11284 3310,11284 3310,11303 "/>
   <path id="10" class="fil5" d="M3370 11321l-6 0 0 -7 -16 0 0 7 -7 0 -1 -13 3 0c1,0 1,-2 2,-4 1,-1 1,-4 2,-7l1 -13 20 0 0 24 3 0 -1 13zm-19 -13l10 0 0 -18 -7 0 0 7c-1,5 -2,9 -3,11z"/>
   <polygon id="11" class="fil5" points="3391,11284 3398,11284 3398,11314 3391,11314 3391,11295 3380,11314 3373,11314 3373,11284 3380,11284 3380,11303 "/>
   <path id="12" class="fil5" d="M3417 11292c0,-1 -1,-1 -2,-2 0,0 -1,-1 -2,-1 -2,0 -3,1 -3,1 -1,1 -1,1 -1,2l-7 0c0,-1 0,-3 1,-4 1,-1 2,-2 4,-3 2,-1 3,-1 6,-1 3,0 6,0 8,2 2,1 3,4 3,6 0,2 -1,3 -1,4 -1,1 -2,2 -4,3 2,0 3,1 4,2 1,1 1,3 1,4 0,3 -1,5 -3,7 -2,1 -5,2 -8,2 -4,0 -6,-1 -9,-2 -2,-2 -3,-4 -3,-7l7 0c0,1 1,2 2,3 0,0 1,1 3,1 1,0 2,-1 3,-1 1,-1 1,-2 1,-3 0,-1 0,-2 -1,-3 -1,0 -2,-1 -3,-1l-4 0 0 -5 4 0c2,0 4,-1 4,-4z"/>
   <path id="13" class="fil5" d="M3445 11308l-10 0 -1 6 -8 0 11 -30 7 0 11 30 -8 0 -2 -6zm-8 -5l6 0 -3 -11 -3 11z"/>
   <path id="14" class="fil5" d="M3474 11284l7 0 0 30 -7 0 0 -19 -11 19 -7 0 0 -30 7 0 0 19 11 -19zm2 -8c0,2 0,4 -2,5 -1,1 -3,1 -5,1 -2,0 -4,0 -6,-1 -1,-1 -2,-3 -2,-5l5 0c0,1 0,2 1,2 0,1 1,1 2,1 1,0 1,0 2,-1 0,0 1,-1 1,-2l4 0z"/>
   <polygon id="15" class="fil5" points="3510,11314 3503,11314 3503,11301 3493,11301 3493,11314 3486,11314 3486,11284 3493,11284 3493,11296 3503,11296 3503,11284 3510,11284 "/>
   <polygon id="16" class="fil5" points="3533,11301 3522,11301 3522,11308 3535,11308 3535,11314 3515,11314 3515,11284 3535,11284 3535,11290 3522,11290 3522,11296 3533,11296 "/>
   <path id="17" class="fil5" d="M3545 11304l0 10 -7 0 0 -30 12 0c2,0 4,1 6,1 2,1 3,2 4,4 1,1 2,3 2,5 0,3 -2,5 -4,7 -2,2 -4,3 -8,3l-5 0zm0 -6l5 0c1,0 2,0 3,-1 1,-1 1,-2 1,-3 0,-1 0,-2 -1,-3 -1,-1 -2,-1 -3,-1l-5 0 0 8z"/>
   <path id="18" class="fil5" d="M3572 11294l4 0c3,0 5,1 6,2 2,0 4,1 5,3 1,1 1,3 1,5 0,3 -1,5 -3,7 -2,2 -5,3 -9,3l-11 0 0 -30 7 0 0 10zm25 20l-7 0 0 -30 7 0 0 30zm-25 -14l0 8 4 0c2,0 3,0 4,-1 0,-1 1,-2 1,-3 0,-1 -1,-2 -1,-3 -1,-1 -2,-1 -4,-1l-4 0z"/>
   <polygon class="fil5" points="2935,11471 2953,11471 2953,11514 2969,11514 2969,11413 2953,11413 2953,11457 2935,11457 2935,11413 2919,11413 2919,11514 2935,11514 "/>
   <path id="1" class="fil5" d="M3015 11413l-23 0 -16 101 14 0 3 -18 20 0 2 18 16 0 -16 -101zm-12 18l7 51 -15 0 8 -51z"/>
   <path id="2" class="fil5" d="M3034 11514l3 0c15,0 22,-7 23,-25l1 -61 14 0 0 86 16 0 0 -101 -45 0 -2 76c0,10 -3,11 -10,11l0 14z"/>
   <polygon id="3" class="fil5" points="3133,11468 3139,11443 3139,11514 3153,11514 3153,11413 3136,11413 3123,11455 3117,11477 3117,11413 3103,11413 3103,11514 3119,11514 "/>
   <polygon id="4" class="fil5" points="3160,11428 3176,11428 3176,11514 3192,11514 3192,11428 3209,11428 3209,11413 3160,11413 "/>
   <polygon id="5" class="fil5" points="3252,11514 3268,11514 3246,11458 3268,11413 3252,11413 3231,11457 3231,11413 3216,11413 3216,11514 3231,11514 3231,11483 3236,11474 "/>
   <polygon id="6" class="fil5" points="3305,11468 3311,11443 3311,11514 3325,11514 3325,11413 3308,11413 3295,11455 3289,11477 3289,11413 3275,11413 3275,11514 3291,11514 "/>
   <polygon id="7" class="fil5" points="3352,11471 3370,11471 3370,11514 3386,11514 3386,11413 3370,11413 3370,11457 3352,11457 3352,11413 3336,11413 3336,11514 3352,11514 "/>
   <path id="8" class="fil5" d="M3433 11413l-23 0 -16 101 14 0 3 -18 19 0 3 18 16 0 -16 -101zm-13 18l8 51 -15 0 7 -51z"/>
   <polygon id="9" class="fil5" points="3494,11428 3522,11428 3522,11413 3479,11413 3479,11514 3522,11514 3522,11500 3494,11500 3494,11470 3516,11470 3516,11456 3494,11456 "/>
   <polygon id="10" class="fil5" points="3567,11514 3584,11514 3562,11458 3584,11413 3568,11413 3547,11457 3547,11413 3531,11413 3531,11514 3547,11514 3547,11483 3552,11474 "/>
   <path id="11" class="fil5" d="M3626 11413l-23 0 -16 101 14 0 3 -18 19 0 3 18 16 0 -16 -101zm-12 18l7 51 -15 0 8 -51z"/>
   <polygon id="12" class="fil5" points="3645,11428 3661,11428 3661,11514 3677,11514 3677,11428 3694,11428 3694,11413 3645,11413 "/>
   <polygon id="13" class="fil5" points="3716,11428 3744,11428 3744,11413 3700,11413 3700,11514 3744,11514 3744,11500 3716,11500 3716,11470 3738,11470 3738,11456 3716,11456 "/>
   <path id="14" class="fil5" d="M3777 11413l-24 0 0 101 16 0 0 -38 8 0c15,0 23,-9 23,-25l0 -13c0,-16 -8,-25 -23,-25zm0 15c5,0 7,2 7,9l0 15c0,8 -2,10 -7,10l-8 0 0 -34 8 0z"/>
   <polygon id="15" class="fil5" points="3837,11468 3843,11443 3843,11514 3858,11514 3858,11413 3840,11413 3827,11455 3822,11477 3822,11413 3807,11413 3807,11514 3824,11514 "/>
   <polygon id="16" class="fil5" points="3885,11471 3903,11471 3903,11514 3919,11514 3919,11413 3903,11413 3903,11457 3885,11457 3885,11413 3869,11413 3869,11514 3885,11514 "/>
   <path id="17" class="fil5" d="M3965 11413l-23 0 -16 101 14 0 3 -18 20 0 2 18 16 0 -16 -101zm-12 18l7 51 -15 0 8 -51z"/>
   <polygon id="18" class="fil5" points="3155,11657 3196,11657 3196,11642 3170,11642 3170,11556 3155,11556 "/>
   <path id="19" class="fil5" d="M3234 11619l0 14c0,8 -3,10 -8,10 -5,0 -8,-2 -8,-10l0 -54c0,-7 3,-10 8,-10 5,0 8,3 8,10l0 11 15 0 0 -10c0,-16 -8,-25 -23,-25 -16,0 -24,9 -24,25l0 52c0,16 8,26 24,26 15,0 23,-10 23,-26l0 -13 -15 0z"/>
   <polygon id="20" class="fil5" points="3258,11613 3287,11613 3287,11599 3258,11599 "/>
   <path id="21" class="fil5" d="M3312 11579c0,-7 3,-10 8,-10 5,0 8,3 8,10l0 54c0,8 -3,10 -8,10 -5,0 -8,-2 -8,-10l0 -54zm-16 53c0,16 9,26 24,26 16,0 24,-10 24,-26l0 -52c0,-16 -8,-25 -24,-25 -15,0 -24,9 -24,25l0 52z"/>
   <path id="22" class="fil5" d="M3364 11580l12 0 0 77 16 0 0 -101 -10 0c-3,7 -6,13 -18,13l0 11z"/>
   <path id="23" class="fil5" d="M3426 11579c0,-7 3,-10 8,-10 5,0 8,3 8,10l0 54c0,8 -3,10 -8,10 -5,0 -8,-2 -8,-10l0 -54zm-16 53c0,16 9,26 24,26 16,0 24,-10 24,-26l0 -52c0,-16 -8,-25 -24,-25 -15,0 -24,9 -24,25l0 52z"/>
   <path id="24" class="fil5" d="M3500 11581c0,29 -32,34 -32,63l0 13 46 0 0 -15 -30 0c0,-1 0,-1 0,-2 0,-17 31,-28 31,-60 0,-16 -8,-25 -23,-25 -16,0 -24,9 -24,25l0 10 15 0 0 -11c0,-7 3,-10 8,-10 5,0 9,3 9,12z"/>
   <path id="25" class="fil5" d="M3556 11581c0,29 -31,34 -31,63l0 13 46 0 0 -15 -30 0c0,-1 0,-1 0,-2 0,-17 31,-28 31,-60 0,-16 -8,-25 -23,-25 -16,0 -24,9 -24,25l0 10 15 0 0 -11c0,-7 3,-10 8,-10 5,0 8,3 8,12z"/>
   <path id="26" class="fil5" d="M3596 11579c0,-7 4,-10 9,-10 5,0 8,3 8,10l0 54c0,8 -3,10 -8,10 -5,0 -9,-2 -9,-10l0 -54zm-15 53c0,16 8,26 24,26 15,0 24,-10 24,-26l0 -52c0,-16 -9,-25 -24,-25 -16,0 -24,9 -24,25l0 52z"/>
   <path id="27" class="fil5" d="M3653 11579c0,-7 4,-10 9,-10 5,0 8,3 8,10l0 54c0,8 -3,10 -8,10 -5,0 -9,-2 -9,-10l0 -54zm-15 53c0,16 8,26 24,26 15,0 24,-10 24,-26l0 -52c0,-16 -9,-25 -24,-25 -16,0 -24,9 -24,25l0 52z"/>
   <path id="28" class="fil5" d="M3727 11581c0,29 -31,34 -31,63l0 13 45 0 0 -15 -29 0c-1,-1 -1,-1 -1,-2 0,-17 32,-28 32,-60 0,-16 -8,-25 -24,-25 -15,0 -23,9 -23,25l0 10 15 0 0 -11c0,-7 3,-10 8,-10 5,0 8,3 8,12z"/>
  </g>
  <path class="fil5" d="M4460 10282c1,1 2,3 1,4 -1,1 -2,1 -4,1l-18 -12c-1,0 -1,1 -2,2 -5,4 -11,7 -18,7 -7,0 -14,-3 -19,-7 -4,-5 -7,-12 -7,-19 0,-7 3,-13 7,-18 5,-5 12,-8 19,-8 7,0 13,3 18,8 5,5 8,11 8,18 0,5 -1,9 -3,12l18 12zm-27 -38c-3,-4 -8,-7 -14,-7 -6,0 -11,3 -15,7 -4,3 -6,8 -6,14 0,6 2,11 6,15 4,4 9,6 15,6 6,0 11,-2 14,-6 4,-4 7,-9 7,-15 0,-6 -3,-11 -7,-14z"/>
  <g>
   <g>
    <rect class="fil2" x="4198" y="10037" width="127.2" height="26.3925"/>
    <rect class="fil8" x="4198" y="10011" width="127.2" height="26.3925"/>
    <rect class="fil1" x="4198" y="9984" width="127.2" height="26.3925"/>
   </g>
   <path class="fil5" d="M4198 9982l128 0 2 0 0 2 0 79 0 3 -2 0 -128 0 -2 0 0 -3 0 -79 0 -2 2 0zm125 5l-122 0 0 74 122 0 0 -74z"/>
  </g>
  <g>
   <g>
    <rect class="fil1" x="4200" y="10114" width="125.992" height="76.6634"/>
    <g>
     <polygon class="fil9" points="4198,10146 4198,10159 4255,10159 4256,10191 4269,10191 4269,10159 4327,10159 4327,10146 4269,10146 4269,10112 4256,10112 4255,10146 "/>
     <path class="fil10" d="M4327 10146l0 -3 -42 0c0,-1 0,-1 0,-1l18 -12c0,0 1,-1 1,-1l4 -2c0,0 0,-1 0,-1 1,0 1,0 2,-1l2 -1c1,-1 1,-1 1,-1 0,0 1,0 1,0l11 -8c0,0 0,0 0,-1 1,0 1,0 1,0 1,0 0,0 1,0l0 -2 -9 0 -2 1c0,1 0,1 0,1l-1 1c-1,0 -1,0 -1,0l-2 1c0,0 0,1 -1,1l-3 2c0,0 -1,1 -1,1l-4 2c0,1 0,1 0,1l-4 2c0,0 0,0 0,1l-4 2c0,0 0,0 0,1l-3 1c0,0 0,0 0,0l-8 6c0,0 0,0 -1,0l-3 3c0,0 0,0 0,0l-4 2c0,1 0,1 0,1l-2 1c0,0 -1,0 -1,0l0 -6 1 -1c1,-1 2,-2 3,-2 1,-1 3,-2 4,-3l7 -5c0,0 1,0 1,0l1 -2c1,0 2,-1 3,-1l15 -11 -5 0 -2 2c0,0 -1,0 -1,1 -1,0 -1,0 -1,0l-9 6c0,0 0,0 -1,1l-5 3c-1,1 -1,1 -1,1 0,0 0,0 -1,0l-2 2c-1,1 0,0 -1,1l-3 2c0,0 0,0 0,0l-2 1c0,1 0,1 -1,1 0,0 0,0 0,0l0 -21 -4 0 0 34 58 0z"/>
     <path class="fil10" d="M4269 10191l4 0 0 -26c0,1 2,2 2,2 0,0 1,0 1,0l8 6c0,0 2,1 3,2 0,0 0,0 0,0 1,1 1,1 1,1 0,0 1,0 1,1l1 0c1,1 0,1 1,1 0,0 0,0 0,0l3 2c0,0 0,0 0,0l0 0c0,0 0,0 0,0l8 6c0,0 0,0 0,0 0,0 0,0 1,0l1 1c0,0 0,0 1,0 0,1 0,1 0,1 1,0 1,0 1,0l2 2c1,0 1,0 1,1 1,0 1,0 1,0l10 0c0,0 -2,-2 -3,-2l-4 -3c0,0 0,0 0,0 0,0 -1,0 -1,0l-2 -2c0,0 0,0 0,0 0,0 0,0 0,0l-7 -5c0,0 -1,0 -1,-1l-1 0c0,0 0,0 0,0l-2 -1c0,-1 -1,-1 -1,-1 -1,-1 0,0 0,0 0,0 0,0 0,0l-8 -6c0,0 -1,0 -1,0l-1 -1c-1,-1 0,0 -1,-1l-2 -1c0,0 0,0 -1,-1l-2 -1c0,0 -1,-1 -1,-1 0,0 0,0 0,0 -1,-1 -1,-1 -2,-1 0,0 0,0 0,-1 1,0 3,0 4,0 2,0 5,0 6,0 0,0 0,0 0,0l1 1c0,0 0,0 0,0 0,0 0,0 0,0l7 5c0,0 0,0 0,0l2 2c0,0 1,0 1,0l3 2c0,0 0,0 0,0 0,1 1,1 1,1 0,0 0,0 0,0l10 7c0,0 0,0 0,0 1,0 0,0 1,1 0,0 0,0 1,0l3 2c1,1 2,2 3,2 0,1 0,0 0,1l2 1c0,0 0,0 1,0 0,1 1,2 2,2l0 -4c-1,0 0,0 -1,0 0,-1 0,0 -1,-1l-3 -2c0,0 0,0 0,0 0,0 0,0 0,0l-2 -2c0,0 0,0 -1,0 0,0 0,0 -1,-1l-14 -10c0,0 0,0 -1,0l0 0c0,0 0,0 0,0l-5 -4c0,0 0,0 0,0 0,0 0,0 0,0 0,0 -1,0 -1,0 0,0 0,0 0,-1 -1,0 -1,0 -1,0l-1 -1c-1,0 -1,0 -1,-1l33 0 0 -3 -58 0 0 32z"/>
     <path class="fil10" d="M4198 10114c1,0 2,1 3,2 0,0 0,0 1,0 0,1 1,1 2,1 0,1 0,1 0,1 0,0 0,0 1,0l1 1c0,0 1,1 1,1l2 1c0,0 0,0 0,0l2 1c0,0 0,0 0,1l1 0c0,0 0,0 0,0 1,1 1,1 2,1l1 2c1,0 1,0 1,0l14 9c0,1 0,1 0,1l1 1c1,0 1,0 1,0l3 2c0,0 0,0 0,0l2 2c1,0 1,0 1,0 0,0 0,0 1,1 0,0 0,0 0,0 0,0 0,0 1,0l0 1 -42 0 0 3 57 0 1 -34 -4 0 0 21 -11 -7c0,0 0,0 -1,-1 0,0 0,0 0,0l-6 -4c0,0 0,0 0,0 -1,-1 -1,-1 -1,-1 -1,-1 -1,0 -1,-1 -1,0 0,0 -1,0l-3 -2c-1,-1 -2,-2 -3,-3 0,0 0,0 0,0 0,0 0,0 -1,0l-3 -2c0,0 0,0 0,0l-12 0c0,0 0,0 1,0l1 1c0,1 0,1 1,1l2 1c0,0 0,0 0,1 1,0 1,0 1,0l5 4c1,0 1,1 2,1 0,0 0,0 0,0l2 1c0,0 0,0 0,1l5 3c0,0 0,0 1,0 0,0 0,0 0,1 0,0 0,0 0,0 1,0 1,0 1,0 0,1 1,1 1,1l2 1c0,1 1,1 1,1l4 3c0,0 1,0 1,0 0,1 0,1 0,1l1 0c1,1 1,1 1,1l3 2c0,0 0,0 0,0l4 3c0,0 0,0 0,0 1,0 1,0 1,1 0,0 0,0 0,0l2 1c0,0 -1,-1 0,0 0,0 0,0 0,1 -2,0 -4,0 -6,0 -3,0 -3,0 -5,-2 0,0 0,0 -1,0l-4 -3c0,0 -1,-1 -2,-1l-6 -5c0,0 -1,0 -1,0l-1 -1c-1,-1 -1,-1 -1,-1 -1,0 -3,-2 -3,-2 0,0 -1,0 -1,-1l-13 -9c0,0 0,0 0,0 -1,0 -1,0 -1,0 -1,-1 -1,-1 -2,-2 0,0 -1,0 -1,0 0,-1 0,-1 -1,-1l-4 -3 -1 0 0 2z"/>
     <path class="fil10" d="M4198 10162l33 0c-1,1 -1,1 -1,1 -1,1 -3,1 -3,2 -1,0 -1,0 -1,1l-2 1c-1,1 -1,1 -1,1l-4 3c-1,0 -1,0 -1,0l-3 2c0,0 0,0 0,0 -1,1 -4,3 -6,4l-2 2c0,0 0,0 0,0l-2 1c0,0 0,0 0,0 0,0 0,0 -1,0l-3 3c0,0 -2,1 -3,2l0 6 3 0c0,0 1,-1 1,-1l6 -4c1,0 0,0 1,0 0,-1 2,-2 2,-2 0,0 1,0 1,-1 0,0 0,0 1,0 0,0 0,-1 1,-1l2 -1c0,-1 0,-1 0,-1l4 -2c0,0 0,0 0,-1l2 0c0,-1 0,-1 0,-1l11 -7c0,0 0,0 0,0l6 -5c0,0 0,0 1,0l0 0c0,0 0,0 0,0l1 -1c0,0 0,0 0,0l1 -1 10 0c0,1 0,1 -1,1l-1 1c0,0 0,0 0,0l-2 1c0,0 0,0 0,0 0,0 0,0 0,0l0 1c-1,0 -1,0 -1,0l-2 2c-1,0 0,0 -1,0l-2 1c0,0 0,0 0,1 0,0 -1,0 -1,0l-2 2c-1,0 -1,0 -1,0l-3 2c-1,1 -1,1 -1,1 0,0 0,0 -1,0 0,0 0,1 0,1l-12 8c-1,1 -1,1 -2,1l-2 2c0,0 0,0 0,0l-2 1c0,1 -1,1 -1,1l-2 1c0,0 0,0 0,1 -1,0 -1,0 -1,0l4 0c0,0 0,0 1,-1l11 -8c1,0 1,0 1,0 0,0 0,0 1,-1l8 -5c0,-1 -1,0 0,0l1 -1c0,0 0,0 0,0 1,-1 1,-1 1,-1 0,0 0,0 1,0l2 -2c0,0 0,0 0,0 0,0 0,0 0,0 1,0 1,0 1,-1 0,0 0,0 1,0 0,0 0,-1 1,-1l2 -2c0,0 0,0 1,0l2 -2c0,0 0,0 1,0 0,0 0,0 1,-1l0 26 4 0 -1 -32 -57 0 0 3z"/>
     <path class="fil8" d="M4327 10143l0 -29c-1,0 0,0 -1,0 0,0 0,0 -1,0 0,1 0,1 0,1l-11 8c0,0 -1,0 -1,0 0,0 0,0 -1,1l-2 1c-1,1 -1,1 -2,1 0,0 0,1 0,1l-4 2c0,0 -1,1 -1,1l-18 12c0,0 0,0 0,1l42 0z"/>
     <path class="fil8" d="M4198 10143l42 0 0 -1c-1,0 -1,0 -1,0 0,0 0,0 0,0 -1,-1 -1,-1 -1,-1 0,0 0,0 -1,0l-2 -2c0,0 0,0 0,0l-3 -2c0,0 0,0 -1,0l-1 -1c0,0 0,0 0,-1l-14 -9c0,0 0,0 -1,0l-1 -2c-1,0 -1,0 -2,-1 0,0 0,0 0,0l-1 0c0,-1 0,-1 0,-1l-2 -1c0,0 0,0 0,0l-2 -1c0,0 -1,-1 -1,-1l-1 -1c-1,0 -1,0 -1,0 0,0 0,0 0,-1 -1,0 -2,0 -2,-1 -1,0 -1,0 -1,0 -1,-1 -2,-2 -3,-2l0 29z"/>
     <path class="fil8" d="M4215 10191l37 0 0 -26c-1,1 -1,1 -1,1 -1,0 -1,0 -1,0l-2 2c-1,0 -1,0 -1,0l-2 2c-1,0 -1,1 -1,1 -1,0 -1,0 -1,0 0,1 0,1 -1,1 0,0 0,0 0,0 0,0 0,0 0,0l-2 2c-1,0 -1,0 -1,0 0,0 0,0 -1,1 0,0 0,0 0,0l-1 1c-1,0 0,-1 0,0l-8 5c-1,1 -1,1 -1,1 0,0 0,0 -1,0l-11 8c-1,1 -1,1 -1,1z"/>
     <path class="fil8" d="M4273 10191l37 0c0,0 0,0 -1,0 0,-1 0,-1 -1,-1l-2 -2c0,0 0,0 -1,0 0,0 0,0 0,-1 -1,0 -1,0 -1,0l-1 -1c-1,0 -1,0 -1,0 0,0 0,0 0,0l-8 -6c0,0 0,0 0,0l0 0c0,0 0,0 0,0l-3 -2c0,0 0,0 0,0 -1,0 0,0 -1,-1l-1 0c0,-1 -1,-1 -1,-1 0,0 0,0 -1,-1 0,0 0,0 0,0 -1,-1 -3,-2 -3,-2l-8 -6c0,0 -1,0 -1,0 0,0 -2,-1 -2,-2l0 26z"/>
     <path class="fil8" d="M4327 10185l0 -23 -33 0c0,1 0,1 1,1l1 1c0,0 0,0 1,0 0,1 0,1 0,1 0,0 1,0 1,0 0,0 0,0 0,0 0,0 0,0 0,0l5 4c0,0 0,0 0,0l0 0c1,0 1,0 1,0l14 10c1,1 1,1 1,1 1,0 1,0 1,0l2 2c0,0 0,0 0,0 0,0 0,0 0,0l3 2c1,1 1,0 1,1 1,0 0,0 1,0z"/>
     <path class="fil8" d="M4198 10185c1,-1 3,-2 3,-2l3 -3c1,0 1,0 1,0 0,0 0,0 0,0l2 -1c0,0 0,0 0,0l2 -2c2,-1 5,-3 6,-4 0,0 0,0 0,0l3 -2c0,0 0,0 1,0l4 -3c0,0 0,0 1,-1l2 -1c0,-1 0,-1 1,-1 0,-1 2,-1 3,-2 0,0 0,0 1,-1l-33 0 0 23z"/>
     <path class="fil8" d="M4252 10112l-31 0c0,0 0,0 0,0l3 2c1,0 1,0 1,0 0,0 0,0 0,0 1,1 2,2 3,3l3 2c1,0 0,0 1,0 0,1 0,0 1,1 0,0 0,0 1,1 0,0 0,0 0,0l6 4c0,0 0,0 0,0 1,1 1,1 1,1l11 7 0 -21z"/>
     <path class="fil8" d="M4303 10112l-30 0 0 21c0,0 0,0 0,0 1,0 1,0 1,-1l2 -1c0,0 0,0 0,0l3 -2c1,-1 0,0 1,-1l2 -2c1,0 1,0 1,0 0,0 0,0 1,-1l5 -3c1,-1 1,-1 1,-1l9 -6c0,0 0,0 1,0 0,-1 1,-1 1,-1l2 -2z"/>
     <path class="fil9" d="M4209 10112l-10 0 4 3c1,0 1,0 1,1 0,0 1,0 1,0 1,1 1,1 2,2 0,0 0,0 1,0 0,0 0,0 0,0l13 9c0,1 1,1 1,1 0,0 2,2 3,2 0,0 0,0 1,1l1 1c0,0 1,0 1,0l6 5c1,0 2,1 2,1l4 3c1,0 1,0 1,0 2,2 2,2 5,2 2,0 4,0 6,0 0,-1 0,-1 0,-1 -1,-1 0,0 0,0l-2 -1c0,0 0,0 0,0 0,-1 0,-1 -1,-1 0,0 0,0 0,0l-4 -3c0,0 0,0 0,0l-3 -2c0,0 0,0 -1,-1l-1 0c0,0 0,0 0,-1 0,0 -1,0 -1,0l-4 -3c0,0 -1,0 -1,-1l-2 -1c0,0 -1,0 -1,-1 0,0 0,0 -1,0 0,0 0,0 0,0 0,-1 0,-1 0,-1 -1,0 -1,0 -1,0l-5 -3c0,-1 0,-1 0,-1l-2 -1c0,0 0,0 0,0 -1,0 -1,-1 -2,-1l-5 -4c0,0 0,0 -1,0 0,-1 0,-1 0,-1l-2 -1c-1,0 -1,0 -1,-1l-1 -1c-1,0 -1,0 -1,0z"/>
     <path class="fil9" d="M4201 10191l10 0c0,0 0,0 1,0 0,-1 0,-1 0,-1l2 -1c0,0 1,0 1,-1l2 -1c0,0 0,0 0,0l2 -2c1,0 1,0 2,-1l12 -8c0,0 0,-1 0,-1 1,0 1,0 1,0 0,0 0,0 1,-1l3 -2c0,0 0,0 1,0l2 -2c0,0 1,0 1,0 0,-1 0,-1 0,-1l2 -1c1,0 0,0 1,0l2 -2c0,0 0,0 1,0l0 -1c0,0 0,0 0,0 0,0 0,0 0,0l2 -1c0,0 0,0 0,0l1 -1c1,0 1,0 1,-1l-10 0 -1 1c0,0 0,0 0,0l-1 1c0,0 0,0 0,0l0 0c-1,0 -1,0 -1,0l-6 5c0,0 0,0 0,0l-11 7c0,0 0,0 0,1l-2 0c0,1 0,1 0,1l-4 2c0,0 0,0 0,1l-2 1c-1,0 -1,1 -1,1 -1,0 -1,0 -1,0 0,1 -1,1 -1,1 0,0 -2,1 -2,2 -1,0 0,0 -1,0l-6 4c0,0 -1,1 -1,1z"/>
     <path class="fil9" d="M4320 10191l7 0 0 -2c-1,0 -2,-1 -2,-2 -1,0 -1,0 -1,0l-2 -1c0,-1 0,0 0,-1 -1,0 -2,-1 -3,-2l-3 -2c-1,0 -1,0 -1,0 -1,-1 0,-1 -1,-1 0,0 0,0 0,0l-10 -7c0,0 0,0 0,0 0,0 -1,0 -1,-1 0,0 0,0 0,0l-3 -2c0,0 -1,0 -1,0l-2 -2c0,0 0,0 0,0l-7 -5c0,0 0,0 0,0 0,0 0,0 0,0l-1 -1c0,0 0,0 0,0 -1,0 -4,0 -6,0 -1,0 -3,0 -4,0 0,1 0,1 0,1 1,0 1,0 2,1 0,0 0,0 0,0 0,0 1,1 1,1l2 1c1,1 1,1 1,1l2 1c1,1 0,0 1,1l1 1c0,0 1,0 1,0l8 6c0,0 0,0 0,0 0,0 -1,-1 0,0 0,0 1,0 1,1l2 1c0,0 0,0 0,0l1 0c0,1 1,1 1,1l7 5c0,0 0,0 0,0 0,0 0,0 0,0l2 2c0,0 1,0 1,0 0,0 0,0 0,0l4 3c1,0 3,2 3,2z"/>
     <path class="fil9" d="M4318 10112l-10 0 -15 11c-1,0 -2,1 -3,1l-1 2c0,0 -1,0 -1,0l-7 5c-1,1 -3,2 -4,3 -1,0 -2,1 -3,2l-1 1 0 6c0,0 1,0 1,0l2 -1c0,0 0,0 0,-1l4 -2c0,0 0,0 0,0l3 -3c1,0 1,0 1,0l8 -6c0,0 0,0 0,0l3 -1c0,-1 0,-1 0,-1l4 -2c0,-1 0,-1 0,-1l4 -2c0,0 0,0 0,-1l4 -2c0,0 1,-1 1,-1l3 -2c1,0 1,-1 1,-1l2 -1c0,0 0,0 1,0l1 -1c0,0 0,0 0,-1l2 -1z"/>
    </g>
   </g>
   <path class="fil5" d="M4199 10110l127 0 2 0 0 2 0 79 0 3 -2 0 -127 0 -3 0 0 -3 0 -79 0 -2 3 0zm125 4l-123 0 0 75 123 0 0 -75z"/>
  </g>
 </g>
</svg>
