<?xml version="1.0" encoding="UTF-8"?>
<!DOCTYPE svg PUBLIC "-//W3C//DTD SVG 1.1//EN" "http://www.w3.org/Graphics/SVG/1.1/DTD/svg11.dtd">
<!-- Creator: CorelDRAW X7 -->
<svg xmlns="http://www.w3.org/2000/svg" xml:space="preserve" width="4.73333in" height="30in" version="1.1" style="shape-rendering:geometricPrecision; text-rendering:geometricPrecision; image-rendering:optimizeQuality; fill-rule:evenodd; clip-rule:evenodd"
viewBox="0 0 4733 30000"
 xmlns:xlink="http://www.w3.org/1999/xlink">
 <defs>
  <style type="text/css">
   <![CDATA[
    .fil0 {fill:red}
    .fil1 {fill:white}
    .fil2 {fill:white;fill-rule:nonzero}
   ]]>
  </style>
 </defs>
 <g id="Layer_x0020_1">
  <metadata id="CorelCorpID_0Corel-Layer"/>
  <g id="_2911770750192">
   <rect class="fil0" x="237" y="9854" width="468" height="468"/>
   <path class="fil1" d="M345 10088l0 -11 10 0 0 -44 -10 0 0 -12 37 0 0 12 -10 0 0 44 20 0 0 -21 13 0 0 32 -60 0zm182 -24l15 -14 -9 0 0 -8 28 0 0 9 -5 0 -13 12 12 14 7 0 0 11 -15 0 -20 -24zm94 13l0 11 -23 0 0 -4c-4,3 -8,5 -12,5 -5,0 -9,-1 -12,-4 -4,-3 -5,-6 -5,-11 0,-4 1,-8 5,-11 3,-3 8,-4 14,-4 3,0 6,0 10,2l0 -3c0,-2 -1,-4 -2,-6 -2,-1 -4,-2 -7,-2 -3,0 -6,1 -8,4l-12 -2c3,-8 11,-11 22,-11 5,0 9,0 12,1 3,1 5,2 6,4 2,2 3,3 3,5 1,2 1,5 1,9l0 17 8 0zm-23 -6c-3,-2 -6,-3 -8,-3 -2,0 -4,0 -5,1 -1,1 -2,3 -2,4 0,2 1,4 2,5 1,1 2,2 4,2 3,0 6,-2 9,-5l0 -4zm-136 6l0 11 -22 0 0 -4c-4,3 -8,5 -13,5 -4,0 -8,-1 -12,-4 -3,-3 -5,-6 -5,-11 0,-4 2,-8 5,-11 4,-3 9,-4 14,-4 3,0 7,0 11,2l0 -3c0,-2 -1,-4 -3,-6 -1,-1 -3,-2 -6,-2 -3,0 -6,1 -9,4l-12 -2c4,-8 11,-11 23,-11 4,0 8,0 11,1 3,1 5,2 7,4 1,2 2,3 3,5 0,2 1,5 1,9l0 17 7 0zm-22 -6c-4,-2 -7,-3 -9,-3 -1,0 -3,0 -4,1 -2,1 -2,3 -2,4 0,2 0,4 1,5 1,1 3,2 5,2 2,0 5,-2 9,-5l0 -4zm34 -43c0,-2 1,-4 3,-5 1,-2 3,-3 5,-3 3,0 5,1 6,3 2,1 3,3 3,5 0,3 -1,5 -3,6 -1,2 -3,2 -6,2 -2,0 -4,0 -5,-2 -2,-2 -3,-3 -3,-6zm-6 24l0 -10 22 0 0 35 7 0 0 11 -29 0 0 -11 7 0 0 -25 -7 0zm34 36l0 -11 7 0 0 -45 -7 0 0 -11 22 0c0,66 0,-9 0,57l6 0 0 10 -28 0z"/>
   <path class="fil2" d="M367 10140l0 6c0,3 -1,4 -3,4 -2,0 -3,-1 -3,-4l0 -21c0,-3 1,-4 3,-4 2,0 3,1 3,4l0 4 6 0 0 -3c0,-7 -3,-10 -9,-10 -6,0 -9,3 -9,10l0 20c0,6 3,9 9,9 6,0 9,-3 9,-9l0 -6 -6 0zm54 -15c0,-3 1,-4 3,-4 2,0 3,1 3,4l0 21c0,3 -1,4 -3,4 -2,0 -3,-1 -3,-4l0 -21zm-6 21c0,6 3,9 9,9 6,0 9,-3 9,-9l0 -20c0,-7 -3,-10 -9,-10 -6,0 -9,3 -9,10l0 20zm62 9l16 0 0 -6 -10 0 0 -33 -6 0 0 39zm63 -30c0,-3 1,-4 3,-4 2,0 3,1 3,4l0 21c0,3 -1,4 -3,4 -2,0 -3,-1 -3,-4l0 -21zm-6 21c0,6 3,9 9,9 6,0 9,-3 9,-9l0 -20c0,-7 -3,-10 -9,-10 -6,0 -9,3 -9,10l0 20zm80 9c-1,-2 -1,-3 -1,-5l0 -6c0,-4 -1,-7 -4,-8 3,-1 4,-4 4,-8l0 -3c0,-6 -2,-9 -9,-9l-9 0 0 39 6 0 0 -16 2 0c3,0 4,1 4,5l0 6c0,3 1,4 1,5l6 0zm-10 -33c2,0 3,1 3,4l0 4c0,3 -1,4 -3,4l-3 0 0 -12 3 0z"/>
  </g>
 </g>
</svg>
