<?xml version="1.0" encoding="UTF-8"?>
<!DOCTYPE svg PUBLIC "-//W3C//DTD SVG 1.1//EN" "http://www.w3.org/Graphics/SVG/1.1/DTD/svg11.dtd">
<!-- Creator: CorelDRAW X7 -->
<svg xmlns="http://www.w3.org/2000/svg" xml:space="preserve" width="8.26772in" height="11.6929in" version="1.1" style="shape-rendering:geometricPrecision; text-rendering:geometricPrecision; image-rendering:optimizeQuality; fill-rule:evenodd; clip-rule:evenodd"
viewBox="0 0 8268 11693"
 xmlns:xlink="http://www.w3.org/1999/xlink">
 <defs>
  <style type="text/css">
   <![CDATA[
    .fil0 {fill:red}
    .fil1 {fill:white}
    .fil2 {fill:white;fill-rule:nonzero}
   ]]>
  </style>
 </defs>
 <g id="Layer_x0020_1">
  <metadata id="CorelCorpID_0Corel-Layer"/>
  <g id="_2828945080608">
   <rect class="fil0" x="2004" y="700" width="468" height="468"/>
   <path class="fil1" d="M2100 935l0 -12 10 0 0 -44 -10 0 0 -11 37 0 0 11 -10 0 0 44 20 0 0 -20 13 0 0 32 -60 0zm182 -25l16 -13 -10 0 0 -9 28 0 0 9 -5 0 -13 12 12 15 7 0 0 11 -15 0 -20 -25zm94 14l0 11 -23 0 0 -4c-4,3 -8,4 -12,4 -5,0 -9,-1 -12,-4 -4,-2 -5,-6 -5,-10 0,-5 1,-8 5,-11 4,-3 8,-5 14,-5 3,0 6,1 10,2l0 -2c0,-3 0,-5 -2,-6 -2,-2 -4,-2 -6,-2 -4,0 -7,1 -9,3l-12 -2c3,-7 11,-11 23,-11 4,0 8,0 11,1 3,1 5,3 6,4 2,2 3,4 3,6 1,2 1,5 1,9l0 17 8 0zm-23 -7c-3,-2 -6,-3 -8,-3 -2,0 -3,1 -5,2 -1,1 -2,2 -2,4 0,2 1,3 2,4 1,1 2,2 4,2 3,0 6,-2 9,-5l0 -4zm-136 7l0 11 -22 0 0 -4c-4,3 -8,4 -13,4 -4,0 -8,-1 -12,-4 -3,-2 -5,-6 -5,-10 0,-5 2,-8 6,-11 3,-3 8,-5 13,-5 3,0 7,1 11,2l0 -2c0,-3 -1,-5 -3,-6 -1,-2 -3,-2 -6,-2 -3,0 -6,1 -8,3l-12 -2c3,-7 11,-11 22,-11 5,0 8,0 11,1 3,1 5,3 7,4 1,2 2,4 3,6 0,2 1,5 1,9l0 17 7 0zm-22 -7c-4,-2 -7,-3 -9,-3 -1,0 -3,1 -4,2 -2,1 -2,2 -2,4 0,2 0,3 1,4 1,1 3,2 5,2 2,0 5,-2 9,-5l0 -4zm34 -42c0,-2 1,-4 3,-6 1,-1 3,-2 5,-2 3,0 5,1 6,2 2,2 3,4 3,6 0,2 -1,4 -3,6 -1,1 -3,2 -6,2 -2,0 -4,-1 -5,-2 -2,-2 -3,-4 -3,-6zm-6 24l0 -11 22 0 0 36 7 0 0 11 -29 0 0 -11 7 0 0 -25 -7 0zm34 36l0 -11 7 0 0 -45 -7 0 0 -11 22 0c0,66 0,-10 0,56l6 0 0 11 -28 0z"/>
   <path class="fil2" d="M2122 987l0 5c0,3 -1,4 -3,4 -2,0 -3,-1 -3,-4l0 -20c0,-3 1,-4 3,-4 2,0 3,1 3,4l0 4 6 0 0 -4c0,-6 -3,-10 -9,-10 -6,0 -9,4 -9,10l0 20c0,6 3,10 9,10 6,0 9,-4 9,-10l0 -5 -6 0zm54 -15c0,-3 1,-4 3,-4 2,0 4,1 4,4l0 20c0,3 -2,4 -4,4 -2,0 -3,-1 -3,-4l0 -20zm-6 20c0,6 4,10 9,10 6,0 10,-4 10,-10l0 -20c0,-6 -4,-10 -10,-10 -5,0 -9,4 -9,10l0 20zm62 9l16 0 0 -5 -10 0 0 -33 -6 0 0 38zm63 -29c0,-3 1,-4 3,-4 2,0 3,1 3,4l0 20c0,3 -1,4 -3,4 -2,0 -3,-1 -3,-4l0 -20zm-6 20c0,6 3,10 9,10 6,0 9,-4 9,-10l0 -20c0,-6 -3,-10 -9,-10 -6,0 -9,4 -9,10l0 20zm80 9c-1,-1 -1,-3 -1,-4l0 -6c0,-4 -1,-7 -4,-9 3,-1 4,-3 4,-7l0 -3c0,-6 -2,-9 -9,-9l-9 0 0 38 6 0 0 -15 2 0c3,0 4,1 4,4l0 6c0,4 1,4 1,5l6 0zm-10 -33c2,0 3,2 3,4l0 4c0,3 -1,4 -3,4l-3 0 0 -12 3 0z"/>
  </g>
 </g>
</svg>
