<?xml version="1.0" encoding="UTF-8"?>
<!DOCTYPE svg PUBLIC "-//W3C//DTD SVG 1.1//EN" "http://www.w3.org/Graphics/SVG/1.1/DTD/svg11.dtd">
<!-- Creator: CorelDRAW X7 -->
<svg xmlns="http://www.w3.org/2000/svg" xml:space="preserve" width="2480px" height="3508px" version="1.1" style="shape-rendering:geometricPrecision; text-rendering:geometricPrecision; image-rendering:optimizeQuality; fill-rule:evenodd; clip-rule:evenodd"
viewBox="0 0 2480000 3507429"
 xmlns:xlink="http://www.w3.org/1999/xlink">
 <defs>
  <style type="text/css">
   <![CDATA[
    .fil0 {fill:red}
    .fil1 {fill:white}
    .fil2 {fill:white;fill-rule:nonzero}
   ]]>
  </style>
 </defs>
 <g id="Layer_x0020_1">
  <metadata id="CorelCorpID_0Corel-Layer"/>
  <g id="_2828945092160">
   <rect class="fil0" x="601081" y="209972" width="140480" height="140480"/>
   <path class="fil1" d="M630029 280353l0 -3395 2865 0 0 -13262 -2865 0 0 -3396 11016 0 0 3396 -2924 0 0 13262 5936 0 0 -6202 3899 0 0 9597 -17927 0zm54380 -7397l4759 -3914 -2899 0 0 -2658 8447 0 0 2806 -1402 0 -4087 3494 3728 4450 1939 0 0 3219 -4284 0 -6201 -7397zm28205 4178l0 3219 -6704 0 0 -1106c-1201,876 -2471,1314 -3805,1314 -1383,0 -2575,-394 -3579,-1182 -1004,-786 -1507,-1846 -1507,-3170 0,-1339 527,-2458 1586,-3362 1057,-901 2423,-1353 4090,-1353 935,0 2004,236 3215,708l0 -851c0,-709 -243,-1290 -718,-1743 -482,-457 -1128,-684 -1930,-684 -999,0 -1857,364 -2565,1092l-3589 -649c1039,-2205 3294,-3308 6759,-3308 1348,0 2463,150 3348,452 881,303 1539,697 1973,1178 432,478 739,1004 916,1575 176,571 266,1502 266,2786l0 5084 2244 0zm-6704 -1944c-1074,-674 -1930,-1008 -2569,-1008 -508,0 -968,151 -1384,447 -416,298 -625,729 -625,1295 0,512 168,950 502,1314 334,364 768,547 1290,547 826,0 1752,-488 2786,-1457l0 -1138zm-40824 1944l0 3219 -6704 0 0 -1106c-1201,876 -2472,1314 -3806,1314 -1383,0 -2575,-394 -3577,-1182 -1005,-786 -1507,-1846 -1507,-3170 0,-1339 525,-2458 1585,-3362 1057,-902 2422,-1353 4091,-1353 935,0 2002,236 3214,708l0 -851c0,-709 -242,-1290 -719,-1743 -482,-457 -1127,-684 -1930,-684 -999,0 -1856,364 -2564,1092l-3589 -649c1039,-2205 3293,-3308 6759,-3308 1349,0 2462,150 3347,452 882,303 1540,696 1973,1178 433,478 740,1004 917,1575 176,571 265,1501 265,2786l0 5084 2245 0zm-6704 -1944c-1073,-674 -1930,-1008 -2570,-1008 -507,0 -968,150 -1383,447 -416,298 -625,729 -625,1295 0,512 167,950 501,1314 336,364 769,547 1290,547 828,0 1753,-488 2787,-1457l0 -1138zm10337 -12773c0,-670 236,-1246 713,-1723 477,-477 1049,-719 1723,-719 684,0 1259,242 1728,719 471,478 709,1053 709,1723 0,674 -238,1244 -714,1717 -478,477 -1048,715 -1723,715 -665,0 -1236,-241 -1718,-720 -478,-475 -718,-1048 -718,-1712zm-1979 7186l0 -3219 6586 0 0 10750 2068 0 0 3219 -8654 0 0 -3219 2127 0 0 -7531 -2127 0zm10219 10750l0 -3219 2245 0 0 -13615 -2245 0 0 -3219 6674 0c0,19729 0,-2785 0,16983l1684 0 0 3070 -8358 0z"/>
   <path class="fil2" d="M636572 296032l0 1642c0,821 -361,1116 -935,1116 -575,0 -937,-295 -937,-1116l0 -6209c0,-821 362,-1134 937,-1134 574,0 935,313 935,1134l0 1233 1709 0 0 -1117c0,-1840 -920,-2891 -2694,-2891 -1773,0 -2693,1051 -2693,2891l0 5978c0,1840 920,2891 2693,2891 1774,0 2694,-1051 2694,-2891l0 -1527 -1709 0zm16234 -4567c0,-821 361,-1134 936,-1134 574,0 935,313 935,1134l0 6209c0,821 -361,1133 -935,1133 -575,0 -936,-312 -936,-1133l0 -6209zm-1807 6094c0,1840 969,2891 2743,2891 1774,0 2744,-1051 2744,-2891l0 -5978c0,-1840 -970,-2891 -2744,-2891 -1774,0 -2743,1051 -2743,2891l0 5978zm18417 2760l4779 0 0 -1643 -2972 0 0 -9855 -1807 0 0 11498zm18992 -8854c0,-821 361,-1134 936,-1134 575,0 937,313 937,1134l0 6209c0,821 -362,1133 -937,1133 -575,0 -936,-312 -936,-1133l0 -6209zm-1807 6094c0,1840 970,2891 2743,2891 1774,0 2744,-1051 2744,-2891l0 -5978c0,-1840 -970,-2891 -2744,-2891 -1773,0 -2743,1051 -2743,2891l0 5978zm24035 2760c-181,-428 -197,-838 -197,-1398l0 -1773c0,-1199 -296,-2069 -1199,-2447 804,-378 1182,-1149 1182,-2333l0 -903c0,-1774 -804,-2644 -2677,-2644l-2727 0 0 11498 1807 0 0 -4682 625 0c820,0 1182,395 1182,1462l0 1807c0,937 66,1116 164,1413l1840 0zm-2940 -9855c640,0 919,361 919,1182l0 1133c0,920 -410,1216 -1084,1216l-706 0 0 -3531 871 0z"/>
  </g>
 </g>
</svg>
